<svg width="40" height="40" fill="none" xmlns="http://www.w3.org/2000/svg"><rect x=".5" y=".5" width="39" height="39" rx="19.5" stroke="#000"/><path d="M20 20.427c1.02 0 1.947.295 2.629.711.34.209.631.453.841.72.207.261.36.575.36.91 0 .36-.175.642-.427.845-.239.191-.553.318-.887.406-.672.178-1.568.238-2.516.238-.949 0-1.845-.06-2.517-.238-.334-.088-.648-.215-.886-.406-.253-.203-.427-.486-.427-.846 0-.334.152-.648.36-.91.21-.266.5-.51.84-.719.683-.416 1.61-.71 2.63-.71zm0-4.68a2.128 2.128 0 110 4.255 2.128 2.128 0 010-4.256z" fill="#000"/></svg>