<svg width="112" height="46" fill="none" xmlns="http://www.w3.org/2000/svg"><g opacity=".75" filter="url(#filter0_f_411_55)"><circle cx="23.477" cy="22.999" r="11.477" fill="#A426FF"/></g><g opacity=".75" filter="url(#filter1_f_411_55)"><ellipse cx="32.11" cy="22.999" rx="12.112" ry="10.738" fill="#FF7A21"/></g><path d="M37.678 22.08v-6.69H35.11v-1.245h6.464v1.245h-2.568v6.69h-1.328zm6.012 0l-2.32-7.935h1.394l1.582 5.73 1.576-5.72 1.394-.01 1.582 5.73 1.576-5.73h1.394l-2.315 7.935h-1.311l-1.626-5.643-1.614 5.643H43.69zm8.747 0v-7.935h1.328v7.935h-1.328zm2.538 0v-7.935h1.344L60 19.738v-5.593h1.345v7.935H60l-3.68-5.593v5.593h-1.346zM38.709 32.245c-.58 0-1.104-.1-1.57-.303a2.968 2.968 0 01-1.147-.865 2.843 2.843 0 01-.568-1.345l1.378-.209c.118.47.358.834.722 1.091.367.257.79.386 1.267.386.283 0 .55-.044.8-.132.25-.088.451-.217.606-.386a.878.878 0 00.237-.623.81.81 0 00-.055-.303.722.722 0 00-.166-.253 1.025 1.025 0 00-.275-.199 1.877 1.877 0 00-.386-.16l-2.05-.606a5.773 5.773 0 01-.573-.204 2.465 2.465 0 01-.579-.358 1.842 1.842 0 01-.446-.584c-.114-.239-.171-.533-.171-.882 0-.51.129-.938.386-1.284.26-.349.61-.61 1.047-.782a3.9 3.9 0 011.466-.254 3.708 3.708 0 011.455.281c.426.18.782.443 1.069.788.286.346.488.763.606 1.251l-1.428.248a1.55 1.55 0 00-.341-.71 1.594 1.594 0 00-.612-.453 2.059 2.059 0 00-1.504-.044 1.336 1.336 0 00-.546.353.791.791 0 00-.204.54c0 .195.059.355.176.48.118.12.263.218.436.292.176.07.354.128.534.176l1.422.397c.195.051.413.121.656.21.242.087.476.21.7.368.224.158.408.366.551.623.147.257.22.584.22.981 0 .412-.086.773-.259 1.086a2.272 2.272 0 01-.689.771 3.14 3.14 0 01-.997.463c-.371.103-.76.154-1.168.154zm3.865-.165v-7.935h3.28a5.301 5.301 0 01.633.044c.46.07.838.222 1.135.457.301.235.524.533.667.893.147.356.22.753.22 1.19 0 .434-.073.83-.22 1.19a2.143 2.143 0 01-.672.888c-.298.235-.674.387-1.13.457a5.013 5.013 0 01-.634.044h-1.95v2.772h-1.329zm1.329-4.012h1.895c.074 0 .156-.004.248-.01.092-.008.176-.023.254-.045a.998.998 0 00.518-.292 1.18 1.18 0 00.27-.474c.055-.176.082-.349.082-.518 0-.169-.027-.342-.082-.518a1.175 1.175 0 00-.27-.48.999.999 0 00-.518-.292 1.078 1.078 0 00-.254-.038 3.114 3.114 0 00-.248-.011h-1.895v2.678zm5.27 4.012v-7.935h5.125v1.245H50.5v1.956h3.135v1.246H50.5v2.243h3.797v1.245h-5.125zm9.082.165c-.793 0-1.473-.172-2.039-.518a3.462 3.462 0 01-1.306-1.454c-.301-.621-.452-1.341-.452-2.16 0-.82.151-1.54.452-2.16a3.417 3.417 0 011.306-1.45c.566-.35 1.246-.524 2.04-.524.914 0 1.676.23 2.286.689.61.456 1.038 1.071 1.284 1.846l-1.339.37c-.154-.519-.417-.923-.788-1.213-.37-.294-.852-.44-1.444-.44-.532 0-.977.118-1.333.357a2.2 2.2 0 00-.8 1.009c-.176.43-.266.935-.27 1.515 0 .58.089 1.088.265 1.521.18.43.448.764.805 1.003.356.239.8.358 1.333.358.592 0 1.073-.146 1.444-.44.371-.294.634-.698.788-1.213l1.34.37c-.247.775-.675 1.392-1.285 1.851-.61.456-1.372.683-2.287.683zM64.958 32v-6.69h-2.569v-1.246h6.465v1.246h-2.568V32h-1.328zm4.336 0v-7.936h3.279c.077 0 .176.004.298.012a2.3 2.3 0 01.336.032c.459.07.837.223 1.135.458.301.235.523.533.667.893.147.356.22.753.22 1.19 0 .647-.163 1.203-.49 1.67-.327.463-.829.75-1.505.86l-.567.05h-2.045V32h-1.328zm4.557 0l-1.565-3.23 1.35-.297L75.356 32H73.85zm-3.229-4.012h1.896c.073 0 .156-.003.248-.01.092-.008.176-.023.253-.045a.998.998 0 00.518-.292c.129-.14.219-.298.27-.474.055-.176.083-.349.083-.518 0-.169-.028-.342-.083-.518a1.176 1.176 0 00-.27-.48.998.998 0 00-.518-.291 1.078 1.078 0 00-.253-.04 3.114 3.114 0 00-.248-.01h-1.896v2.678zm8.703 4.177c-.632 0-1.188-.128-1.67-.385a2.828 2.828 0 01-1.124-1.086c-.268-.467-.402-1.014-.402-1.642v-4.976l1.345-.012v4.955c0 .297.05.564.148.799.103.235.241.435.414.6.172.162.37.285.595.37.224.084.456.126.694.126a1.86 1.86 0 001.295-.502c.173-.164.309-.365.408-.6.1-.235.149-.5.149-.793v-4.955h1.345v4.988c0 .628-.136 1.175-.408 1.642a2.782 2.782 0 01-1.124 1.086c-.478.257-1.033.385-1.665.385zM83.621 32v-7.936h1.196l2.744 5.622 2.744-5.622h1.196V32h-1.24v-5.087L87.826 32h-.53l-2.43-5.087V32h-1.245z" fill="#000"/><defs><filter id="filter0_f_411_55" x="4" y="3.522" width="38.954" height="38.954" filterUnits="userSpaceOnUse" color-interpolation-filters="sRGB"><feFlood flood-opacity="0" result="BackgroundImageFix"/><feBlend in="SourceGraphic" in2="BackgroundImageFix" result="shape"/><feGaussianBlur stdDeviation="4" result="effect1_foregroundBlur_411_55"/></filter><filter id="filter1_f_411_55" x="11.998" y="4.261" width="40.224" height="37.477" filterUnits="userSpaceOnUse" color-interpolation-filters="sRGB"><feFlood flood-opacity="0" result="BackgroundImageFix"/><feBlend in="SourceGraphic" in2="BackgroundImageFix" result="shape"/><feGaussianBlur stdDeviation="4" result="effect1_foregroundBlur_411_55"/></filter></defs></svg>