<svg width="118" height="52" fill="none" xmlns="http://www.w3.org/2000/svg"><path fill-rule="evenodd" clip-rule="evenodd" d="M34.41 21.646c2.118-1.129 2.118-4.165 0-5.294L4.412.356C2.413-.709 0 .74 0 3.003v31.992c0 2.265 2.413 3.713 4.412 2.647L34.41 21.646zm-22.507 5.825l10.59-5.647c2.354-1.255 2.354-4.393 0-5.647l-10.59-5.647c-2.354-1.255-5.295.313-5.295 2.823v11.294c0 2.51 2.941 4.079 5.295 2.824z" fill="#3F9C14"/><path d="M14.186 26h3.276V14.516L19.514 26h5.418l2.052-11.484V26h3.258V13.31h-6.138L22.25 25.028 20.396 13.31h-6.21V26zm17.977-12.69v2.862h2.898v6.948h-2.898V26h9.054v-2.88h-2.898v-6.948h2.898V13.31h-9.054zM43.12 26h3.294v-4.302h4.878V26h3.258v-3.852c0-1.17-.612-2.268-2.358-2.268h-.45c1.314-.288 2.664-1.17 2.664-3.204 0-2.79-2.808-3.366-5.688-3.366H43.12V26zm3.294-7.146v-2.682h2.304c1.386 0 2.43.036 2.43 1.35 0 1.278-.972 1.332-2.43 1.332h-2.304zM55.437 26h3.438l1.188-3.834h4.824L66.075 26h3.474L65.5 13.31h-5.994L55.437 26zm5.526-6.696l1.512-4.842 1.512 4.842h-3.024zM70.366 26h3.276v-3.474h1.728c3.978 0 5.742-1.332 5.742-4.59 0-3.294-1.764-4.626-5.742-4.626h-5.004V26zm3.276-6.336v-3.492h1.926c1.584 0 2.286.432 2.286 1.764 0 1.296-.702 1.728-2.286 1.728h-1.926zM84.169 26h7.704v-2.88H85.77v-9.81h-3.276v11.052c0 1.08.612 1.638 1.674 1.638zm8.446 0h3.438l1.188-3.834h4.824L103.253 26h3.474l-4.05-12.69h-5.994L92.615 26zm5.526-6.696l1.512-4.842 1.512 4.842h-3.024zm15.964-5.994l-2.88 6.948-2.88-6.948h-3.492l3.528 7.794h1.206V26h3.258v-4.896h1.188l3.582-7.794h-3.51z" fill="#EAEAEA"/><path d="M19.36 48.142c2.543 0 4.19-1.534 4.488-4.019h-1.065c-.227 1.96-1.406 3.11-3.422 3.11-2.386 0-3.579-1.789-3.579-4.246 0-2.442 1.193-4.231 3.579-4.231 2.016 0 3.195 1.136 3.422 3.095h1.065c-.298-2.47-1.945-4.004-4.487-4.004-2.925 0-4.644 2.23-4.644 5.14 0 2.926 1.719 5.155 4.644 5.155zM24.739 48h4.998v-.895h-1.974v-8.917c0-.412-.241-.625-.667-.625h-1.818v.895h1.434v8.647h-1.973V48zm5.716-3.522c0 2.017 1.434 3.664 3.692 3.664 2.243 0 3.678-1.647 3.678-3.664 0-2.016-1.435-3.663-3.678-3.663-2.258 0-3.692 1.647-3.692 3.663zm1.05 0c0-1.49.91-2.769 2.642-2.769 1.718 0 2.627 1.278 2.627 2.77 0 1.49-.909 2.768-2.627 2.768-1.733 0-2.641-1.278-2.641-2.769zm10.522 3.664c1.548 0 2.542-.795 2.925-2.102V48h1.051v-7.043h-1.05v3.067c0 1.889-.98 3.223-2.57 3.223-1.236 0-1.819-.582-1.819-2.059v-4.231h-1.065v4.317c0 1.846.938 2.868 2.528 2.868zm9.098 0c1.534 0 2.584-.753 3.081-1.931V48h1.051V37.563h-1.05v5.183c-.483-1.15-1.52-1.931-3.082-1.931-1.974 0-3.309 1.49-3.309 3.663s1.335 3.664 3.31 3.664zm-2.258-3.664c0-1.888 1.165-2.769 2.585-2.769 1.405 0 2.712.938 2.712 2.77 0 1.845-1.306 2.768-2.712 2.768-1.42 0-2.585-.88-2.585-2.769zm17.584 3.664c2.428 0 3.38-1.363 3.635-2.244V48h1.065v-4.587c0-.497-.242-.738-.824-.738H65.91v.824h4.146c.086 2.442-1.121 3.748-3.422 3.748-2.613 0-3.578-1.888-3.578-4.132 0-2.598 1.278-4.373 3.663-4.373 1.818 0 2.94 1.036 3.167 2.825h1.08c-.327-2.328-1.89-3.72-4.275-3.72-3.01 0-4.7 2.116-4.7 5.24 0 2.854 1.406 5.055 4.459 5.055zm6.562-2.102c0 .739.298 2.102 2.329 2.102 1.69 0 2.528-.895 2.854-1.889v.938c0 .51.284.809.81.809h1.22v-.895H79.19v-3.124c0-1.817-.98-3.166-3.053-3.166-1.817 0-2.797 1.079-2.982 2.627h1.065c.142-1.278.909-1.747 1.917-1.747 1.335 0 1.917.668 2.002 2.045l-2.868.27c-1.605.142-2.258.923-2.258 2.03zm1.051-.113c0-.724.454-1.008 1.377-1.094l2.698-.27c0 1.534-1.05 2.699-2.67 2.699-.88 0-1.405-.469-1.405-1.335zM81.63 48h1.051v-3.025c0-1.888.795-3.266 2.315-3.266 1.107 0 1.49.838 1.49 2.201V48h1.052v-3.025c0-1.888.795-3.266 2.314-3.266 1.108 0 1.491.838 1.491 2.201V48h1.051v-4.246c0-1.846-.81-2.94-2.329-2.94-1.434 0-2.3.895-2.67 1.975-.227-1.25-.95-1.974-2.13-1.974-1.405 0-2.229.88-2.584 1.96v-1.818h-1.05V48zm12.46 0h4.885v-.895h-1.973v-5.381c0-.54-.242-.767-.724-.767H94.63v.894h1.406v5.254h-1.945V48zm1.364-9.258c0 .51.412.923.923.923a.933.933 0 00.937-.923c0-.497-.426-.91-.937-.91a.918.918 0 00-.923.91zm5.05 9.258h1.05v-3.067c0-1.889.98-3.224 2.571-3.224 1.249 0 1.817.597 1.817 2.06V48h1.065v-4.317c0-1.846-.937-2.868-2.527-2.868-1.548 0-2.542.795-2.926 2.101v-1.96h-1.05V48zm11.483.142c1.534 0 2.585-.753 3.082-1.931v3.635h-5.141v.895h5.254c.653 0 .937-.299.937-.824v-8.96h-1.05v1.789c-.483-1.15-1.52-1.931-3.082-1.931-1.974 0-3.308 1.49-3.308 3.663s1.334 3.664 3.308 3.664zm-2.258-3.664c0-1.888 1.165-2.769 2.585-2.769 1.406 0 2.712.938 2.712 2.77 0 1.845-1.306 2.768-2.712 2.768-1.42 0-2.585-.88-2.585-2.769z" fill="#AFAFAF"/></svg>