<svg width="623" height="408" fill="none" xmlns="http://www.w3.org/2000/svg"><g opacity=".1" clip-path="url(#clip0_411_394)" fill="#fff"><path d="M393.155 387.753l.874-.12.885.54 2.218.08.539.47.336 1.49-.682.34-.987-.14-.437.48.102.75.874.81 2.462-.95 1.719 1.01.244 1.1-.142.39-1.18.689-.051 1.75.295.54 2.899 1.42.397 2.3 2.604 4.19-.489.88h-.742l-.346.33-.041.82-1.373-.02-2.034.76-1.506.08-1.078-1.64-1.363.13-.559-.34-.509-2.08-.661-.82-.448-.21-1.637.2-1.719-.72-.611.29-1.108-1.54-1.892-1.38-.753-1.07.753-.38.01.87.254-.21.031.38.254-1.11.559 1-.346-1.2.387-.32 2.675-.62 2.716.16-.997-.59-1.729-.29.773-.53.468-1.449-.397-5.71.489-.81z"/><path d="M499.654 360.125l.071.29-.539.31-.763 1.3-2.014.04-1.688-.79-.773.42-.224 1.07 1.251.81-.58.59-1.464.41-.712.65.294 1.16.214-.78.204.56-1.231 2.56.651 3.71 1.17 1.92-2.859 1.88-3.916.31-1.282 1.18-6.784-1.1-1.201.21-.59.79-.905.46-1.607-.29-2.37.98-.295-.69-.702-.39.01-.87-1.271-1.37-2.889-1.87-3.642-1.11-2.939.61-2.035 1.11-1.851 2.04.071 1.22 1.241.61-2.299 1.16-.152.609.376.6.855.42-.183.28-2.177-1-2.085.22-.428.53.143.77-.499.95-1.617.39-1.048.63-.824 1.81-.203 1.66-1.638 1.47-1.149-.4.061-.68-.661-.67-1.017-.26-.397.27-.804-.52-1.648.48-.01.41-.793.25-.794-.27-4.892.48-2.035 1.14-2.115.66-5.239 3.01-1.465 1.8-1.536 3.88-.732.37-.061 1.639-1.424-.23-1.007.62-.926 1.63-2.838.58-1.383 3.09-2.299.41-.926.72-1.627.11-.559.41-3.144-.57.041-.82.346-.33h.743l.488-.88-2.604-4.19-.397-2.299-2.899-1.42-.295-.54.051-1.75 1.18-.69.142-.39-.244-1.1-1.719-1.01-2.461.95-.875-.81-.102-.75.437-.48.987.14.682-.34-.336-1.49-.539-.47-2.218-.08-.885-.54-.874.12.152-1.41.651.07.702-.41.458-1.02.224-1.98-.448-3.15.153-1.009-1.414-4.21-1.668-2.34-2.218-2.01-2.177-1.02-1.281 1.08-1.567.07-.763 1.23-.793-.02-1.078-1.25-1.475-.49-1.241-.9-2.94-3.52-2.655-2.38-2.746-1.71-1.75-.34-3.397.16-3.662 2.45-5.401-1.56.641-.69.04-.65-1.18-1.04 2.136-2.829 1.587-1.26 2.736-1.61.926-.27.458.21.132-.64 2.706-1.6.498.42.488-.26.245.26.651-1.09-.204-.37-.661.02.102-.27 3.041-2.48 6.368-3.5 1.464-.24.56-1.06.692-3.15-.255.85.427.74 1.241.93.794.13 3.814-1.62 2.533-2.419.814.509.234-.46.61-.169v-.59l.417-.25.336-.03.213.7.987-.36.224.62.274-.011.814-1.619.427.07 1.191-1.11.824.83.63.13.926 1.38-.102-3.15.529.03 1.068-.98 1.017.2.153-.28-.499-1.09-2.888-.19-.804.31-.061.32-.671-.23.488-.8-.58-4.37.966-1.47-.935-2.52.712-.25-.743-4.24 1.007-.17 1.444 1.4.54.13.325 1.53.366-.34.326.13-.132.87.406.55.682.25.376-.33.814 1.14.224.08 1.058-1.51-.58-.22-.234-1.08.59-.39.692.5.722 1.08v.58l-.895 1.08.244.43-.753-.26-.081.49 1.007.1 1.251 1.03.498 1.73-.142.29-.417-.22-.132.82.335-.44.448.44.183-.16-.031-1.28.438-.5.519-.2.305.23-.326.14.102.5.407 1.02.305.06.305-.18-.732-1.02 1.831-.31-.468-.48-.773.26-1.058-.73.417-.59 2.634-.38 1.577 1.33.498.01.367 1.42 1.302.43 1.302 1.53.641.19-1.536 1.57-.275-.03-.153-.65-.956.07.702 1.38 1.109.05-.122.66 1.515-.42.295-.41.428.4.142-.33-.448-.31-.305-2.05-.6-.45.214-.55-.723-.18.336.51-.376.11-1.038-1.51-.62-.42-.417.23.254-.97 1.16.91.671-.34 1.332.64.418-.13.864.73-.01.61-.488.14.508 1.08.214-.21-.315-.8 1.108-1.74.499.42-.387 1.05.275.83 1.343.35.04.39.519-.5-.254-.46.213-.38-.803-.24.051-.32.885-.08.528-.42 1.191 1.5.64 1.76 2.757 2.2-.387 1.4.306 1.11.976-.53.743-1.87 1.149.64.519-.33-.997-2.5.458-.58-.417-.4 2.878 1.83.367.68-.743 2.39-2.553 1.19-.01 1.01-1.313 1.129-.142.62-1.719.1.437.97 2.513-.52 2.136-2.319 1.689-1.27 2.532-.8.753-.57.539.93-.376.63-.834-.67-2.075 1.1-.55 2.709 3.255-1.12.133.97.386-.1.529.58-.692 1.01-.498.2-.132.81-1.282.17-1.21 1.3.6.19.173.52 1.871-.83.489.1.823-.61 3.113-.84-1.943 1.55.509.15-.031 1.05 1.394-.9.549.7-.427.25-.01.56.58.54.681-.48 1.739-.32-.183 1.02.702.76 1.516.46 2.075 3.93.814 3.53-.834 1-1.475.55-.509.71 1.017 2.399 1.038 1.44 1.698 1.19.529-.05.387-.46 1.058.17 2.746 1.75 2.645 1.03.376.49-1.027.92.824.57-.041.56.661-1.2 2.574-.55.335.31.122-1.73-1.596-.19-1.089-1.89-1.312-.8-.895-1.73-.539.17-2.808-4.689-1.536-2.06-.966-.76-2.533-3.73-.681-.45-.773-1.73-.59-.65h-.428l-1.251-3.72-.956-1.32.57-.29 3.814 7.3 8.128 11.059 3.458 3.7 1.912 1.41 2.004.96 3.021-1.44 3.886-.97.244-.81 1.099-1.03.071-.46-.417-.52 2.532-2.039-.081-1.27 1.017-.59.804.35-.936.87.763 1.35 1.963 1.699 1.709.71 1.628-.13 1.179-.82.621-.86-.081-1.539.467-.43 2.594-.95 4.303-.61 1.19.52.732-.28 1.007.37 1.425 1.05 1.363-.5.874.06 1.77 1.37.885.21.468-.21.214-.6.752.09.611.81-.143.699 1.17.91zM343.832 116.646l.274.22-.427.62 1.719 1.34.468 1.1 4.231 1.21.194 1.28-1.791.42.692.72-.529.81 1.892 2.32.366-.05.346-.96.61.48-.111.69.691.11.499 2.75 1.607 1.03-.295 1.3.407.36-.346.14-.163 1.16.702.8-1.119.68-.397-.49-.579.53 2.136 2.699.478 1.38 1.821-.47.447 1.63 1.363.19.59.99.041 2.59 3.041 1.07.712.97.865.2-.366.65.518 1.67-.539.56 2.014 1.43-.264.27.051 2.42-1.353 1.33-1.17.04-.091 2.599-.733.59 1.007.66-.132 1.27.468.81.773-.03.783.6.092 1.09-2.95-.09-2.004-1.12-1.922-.22-1.099-1.35-1.048 2.59-.569.52.081.3.498.03-.406.66 1.373 1.13 1.403.45.55.7.936.36.701 1.26.641-.41.875.68 2.126-.48.926.38.64.95 1.831-.92 1.384.14-.336.84-2.512 2.3-.529 1.24.59.88 4.007 1.35-.01 1.13-2.645 1.13.519.41.438 2.009-.448.82 1.465.62.041.33-.957.1-.01.5-3.804.8-.122-.61-1.109.12-.102-.38-.661-.1-.305.53.397.83-2.421.16-.092-.47-.803.69-.275-.43-1.19-.4.285 1.37-.905.04-.794-3.86-.844.38-.254-1.15.244-.26-.733-.24-.315-.67-.712 1.17-1.424-.2-.417-.25.203-.64-.315-1.099-.437.13-.112-.57-1.78.38-.489-.6-.071.29-.742.02-.041.98-.936.05-.519 3.699-1.088-.59-.285 1.25-1.485.43-.041.66.712.53-.04 1.27-.275.25-1.353.06-.234.42-.386-.13.112-.68-1.404.03-.783-.71-.753.91-2.045.4-1.017 1.22.021-1.25-2.503-1.39-.63-.04-.702-.74-.316.5-1.647.66-1.618-.22-.519 1.76-2.248-.42-1.434.95.529-1.03-.407-.3-.59.61.397.23-.295.28.427.89-.742.63.264.34-.529.93.305.31-1.108.69-.021.71-2.573 1.16-.997.87.356.44-.193.29-.55-.34v.51l-.681.55.071-.67-.498.98-.855-.53-.091.58-.834.03-.682-1.55-1.607.46-.356-.88-1.19-.17-.376.66-1.17-.24-.672 1.01-.396-.26-.356.46-.224-.19-.315.67-.733-.56-.203.35-.621-.26-.488-.94-.336.15-.803-.51-.733.19-.244-.35-1.088.16-.427-.43-.265.03.092.58-1.74-.15-.061.64-.386.15-1.699-.29-.742-.88-.285.66-1.689-.63-.102.43-.681.06-1.282-.41-1.993.84-.061.59-.387-.14-.519 1.17-1.149-.06 1.18 1.23-.438 1.69-1.413.489-.865 1.32 1.383 1.15-.396.48.295.25-.092 1.19-2.899.17-.926-.96-1.719.44-.549 2.31-2.156.33-.682.54-1.719.36.041.82-.895.33-.387.06-1.943-1.2-.427.39-.173 1.11-1.149 1.2-.722-.07-1.506-1.43-2.777.46-.02-.91 1.22-.3.122-.89-.478-.29.957.03-.529-2.76-1.608-.48-.366-.62.112-.73 1.221-.16.254-1.13-.549-.03-.112-.75-1.048-.33.071-.809-.895-.03-1.403-1.4-.601-.03.184-.42-.418-.31.377-.82.671-.12-.783-1.19.163-.34-3.408-1.09-.336-3.14-.854-.54-.336-1.56-.366-.37.631-.67-1.048-.53-.498.28-1.201-1.29.387-.58-.397-.4 1.506-2.27-.346-.21-.031-.94-1.454.6-1.19-2.16.305-.119v-.51l.437.689.794-2.169 1.241.4-.204-1.29 1.79-.52-.04-.59h-.417l-.275-.57.437-2.83-.742-1.28.722.16.326-.43.722.16-.356.78-.641.21 1.312 1.43 1.689-.33.264.41 1.16-.51.986.1-.305-.76.773-.26 1.17-2.25.834-.33-.041-1.43-.437-1.01.193-.57.417.22 1.292-.36.56-.75.529-.13 1.566.44.417 1.9.702.84.529-.79-.468-.97.722-.32.57-1.19.102.48 1.78-.17-.407 2.72 5.96 1.02.082.94.315.05.855-3.34.712-.19-.122-1.24.813-.24.031-.97 1.139-.69 1.567 1.93h.671l1.129-1.35.448.17.803-.97 1.058.7 1.231.01 1.963 1.25.671-.67 1.14.01.64-.5 2.248.11.59-.5.834.13.438-1.14.366-.01.142-1.36-.508-.46 2.573-.37.377-.5-.061-.81.834-1.119.539.74-.153-.86.753-.27 1.068-1.02.254-2.4.407-.62.366-.18.55.56.173-.49.325.04-.447-.91.345-.34-.661-.1.173-1.15 2.37-3.55-.112-.84.468.22.173-.42-.722-.4.356-1.48.366-.23-.437-.99.264-1.26-.864-.69 1.027-2.17-.346-1.089 1.18-.75.559.5 1.089-1.4 2.919-.91.082-.39-.936-1.39-.499-.15-.02-.4.427-.3-1.281-.69-.763.34.824-.93-.601-.07.306-.72 2.817-.24 1.282.23.58.51.142.41-.732 2.03.04 1.75.59 1.23.895.2.285.73.682-.11.213.929.417-.11.173-1.379 1.333-.2.366-1.02.539-.16.173-.49.773.05.163 2.69 3.407.3 1.313-2.2.651-.06-.072-1.35.926-.82.671-1.65 2.482.17.448 1.13.58-1.23-.631-2.84 2.268-1.3.529.08.153-.49-1.984-.47-.742.18.122-2.37 2.136-1.17-.488-.8-.387.13-.376-1.07.987.28 1.149-2.24-.153-.37.702-.21 1.455.91 1.017-1.79.702.08.336-.44zM381.101.812l.387-.11 3.285 1.38.468-.23.661.21 1.241-1.12.641.04.773.66-.102.49.519.25-.478 1.25-.814.3.397.91-.529.19.305.36-.427.48.041.73-.356.55-.448.06.285.82-.631 1.12-1.169.45.579.68-.691.69.112.74.752 1.09-.366.11-.183.95.702.1-.509-.24.468-.28 2.492 1.13-.081.56.834.29.305.7-.203.5.661-.18 1.139.39.305-.28-.02 2.71-1.089.03-1.424.62-.813-1.28-.489-.02-1.149 1.08-1.332-.04-.418.89 1.048.44 1.373 1.65-.793 2.62-.844.02-.489-.41-.64.2-.214.67-1.068-.26-.387.54-.935.06.061.44-1.516.12-.03 1.07-1.862 1.159.183 1.61.377.16.274.77-.793.35-.733 1.57-.457-.05-.285.42.397.12.427 1.46 1.088 1.21.275 3.17-.519 1.07.824.24.091 1.73 1.231 1.39 1.079.19-.54.57-1.597-.05-.122.42.448 1.07.549.3.244 1.7-1.475.78-.406-.18-.245.649.153.85-.458.57-.244 1.6.651.6-.549.72.61.33-.152.9-.468-.03-.204-.51-.814-.07.234.47.509.04.071.71-.844.13-.875-.19.021-.61-.814-.43.651-.72-.316-.26-.976.7.681 1.45-.071 1.23.956-.02.489 1.22-.417.89-.712.22.447.36-.631.14 1.13.25-.499 1.29.326.64-1.262 1.39.285 1.22-.458.31-1.271.05-.488.54.284.26-.773 1.17 1.028.98-1.628 2.749.397.35.142-.26 2.676.48.05.5 1.089.21-.346 1.04.793.66-.864.63-.56 1.76 1.221.51.01-.51 1.353-.78.753 2.65.356.19.417-.32 1.342-.07-.142 1.99.366 1.6-.844-.01-.417.4.315 1.05-.376.81.519.22-.987 1.16.427 1.45-.498.42 1.21 2.33h.631l.244.55.61-.07.234.28-.864.569-2.594.59.468.9-.102 2.01-1.088.56.162.48-.61 1.86.631.39-.722.19-.112.64-1.669 2.03.631 1.09-.854.909-.661.07-.367 1.55-1.383-.05.193.65-.376.15-.214.85-.498-.08-.478.43.264.36-.966.31.122.81-2.736 1.84-1.618.16-.122.48.468.29-.325.45-.722-.34-.214.25-.488-.53-.224.36-.122-.28h-2.33l.051-.69-1.342.18-.112.6-2.38-.17-1.272.76-1.353-1.31.214-1.56-1.648.03-1.444-.68-.265.24-.793-.39-.153-.7-1.495.14-.254.42.254.64-1.007.45-.122.86-1.272.35.356.58-.376.81-.539-.4-.346.29-.356-.41-2.492.55-.082-.36.59-.76-.122-.43-1.281-.23-1.16.33-.274-.97.762-1.17-1.708.78-.875-3.05-1.953-.67.356-.59-.489-.26.672.08.081-.61.519-.05.254.54 1.241-.39.631-.9-.346-.629.346-.96-.987-.06-2.278.08-.529-.19-1.058-2.67-1.343-.65-.844-1.26-1.638.44-.01.79-.885.17.163 1.27-.387.21.092.91-3.225-.17-.671.68-.692-.21-.01 1.05-.539.61-2.075-.27-.529.459-1.139-.569-.173.4-.885-.02-1.811 1.139-.762-.08-.143-.79-1.495-.899-1.424 1.769-.356-1.369-2.116-.78.02-.88-.284.03-.133-.6-1.973-.35-.01-.71-.682-.02.021-1.06 1.709.12.305-.33-.275-.37.234-.37-.895-.87.763-1.44-.143-1.29-.386-.13-.021-.45-.539.18-.04-1.18-.804-.07.031-.49-1.496-.91.072-1.27-1.669-.27-.345.84-3.754.04-.244.33-1.709-.47-.376-.39-.458.29-.122 1.12-.763.14-.57-.04-.142-.58.458.08.03-.56.997-.78-1.373 1.02-2.014-.94-1.272.32-.081-.66.437-.83-.539-.85.468-.17.529.4.132-.72.478-.41-.417-2.33-1.007-.57-.183-.47-1.586-.42-.804-2.36-.641-.87-.02-1.93-1.343-.54-.132-.87-3.418.21-.224-1.6.478-1.159-.813-1.12.956-.45.152-.41-.824-1.19-.111-1.89.366-.51.895.13.427-.28-.803-.4.498-.93-.905-1.19.305-.33 1.2.12.315-.25-.05-.81-.59-.67 2.573-1.27.305-1.08-.681.29.315-.37-.641-.36 1.028-.98.935-.39-.468-1.17.611-1-1.241-2.54-.824.21-.305-.31-.153-1.2 1.373-.509.041-.35-1.099-.61-.244-1.34-.488-.46.458-1.95-.407-.24-.783.53-.641-1.18.02-.46.855-.42-.895-.25-.641-.71.346-.41.935.23.326-.31-.763-.5.041-.38-.926-.24.092-.62.824-1-.621-.69.448-.33.701.67.702.07.204-.86-.427-1.54 2.064-.43.163-1.19.702-1.32-.264-.26-.845.24-.112-.41.631-.38.834.05-.091-.49.539-.71-.611-1.56 1.496-.649.366-1.62 1.109-.96.305-1.02 1.871.23.773-1.27-.508-1.5.447-.38.733.45.315-.39-.508-.02.01-.38.834-.54.315.27.58-.15-.132-.77.844-.19-.59-.49.315-.48.509.68.529-.13-.01-.55-.601-.22.234-.38-.223-.34.559-.11-.254-.53.427.06-.417-.39.539-.3-.519-.74.295-.13.194.56.345.03-.508-1.27.641-.09-.061-.8.437-.08-.041.42.865.3 2.746-.71 1.089.03 1.495-.66.661 1.24 1.811.42-.051.55.498.6.967.47 1.475-.56.762-1.58-.244-.3.417-1.01 2.106-.87-.264-.67.915-.46 1.617.02.611 1.2.722.14 1.037-.5 2.95.63 2.309-.02 1.434.42.275.63 2.045-.95 1.21.81 1.739-.65 1.201.42 1.932 1.37-.101.56-.489.54-.732.16.275.37-.427.16 1.922-.47 4.242 1.04.152-.6 1.18.07.509-1.45 1.668-.06.966-.75 1.007-.18 1.312-.84.092-.92.804-.14.091-.6 1.617-.7-.101-.54-1.292.23.722-2.1-.793-1.699.732-1.21 1.221.12.549-.38-.376-.59.234-1.05h-.712l-.601-1.96.051-.84.387-.4 1.271-.04 1.14.78.874-.24.845.73.722-.76 1.404.12 1.037 1.39.956-.27 2.604 1.93.621 1.13 1.881-.99.326.48 1.109-.37.63.27.733-1.03 1.566.26.102 1.38.712.17 1.902-1.51 1.119.03.285-.84 1.353-1.01.61-1.17.387.19.05.48-.376.21.224.45 1.587-1.27.661-1.03 1.18.26.071-1.76.61-.07.143-.32.264.33zM120.457 197.413l2.899.559.804 1.5.753-1.53.549-.62.397-.01.661.38 1.749 2.32-.152 1.27.854-.13 1.139.66.896-.25 1.393-1.51 1.577.59.356-1.65.671-.24.315.35.214 1.74-.753 1.14 1.73 2.37 1.108-.76-.061-.74-1.017-1.64.173-.73.559-.33.926 1.04.112 2.62.722 1.02.997.16 2.451-.75 1.15 1.58.824-.39.946.45 1.332-1.4 1.77-.14 1.475-.35 2.299 4.38 1.638.33.915-.52-.631-1.64.112-.65.794.05.813 1.06 1.384-.03.569-.41-.203-.68-1.007-.9-.183-.79-1.678.25-.326-.42.142-.53.509-.38.804.01 1.546 1.47.844.03.417-.35.112-.71-.153-.74-.64-.62.305-.44.691.45.356 1.58.692.1.58-1.03-.61-1.49.874-.74.743.28-.204 1.14.682 1.22 1.353.89.783-.35.885-1.35 1.363-.07.783-.64.326.9 2.939.69 1.119-.05.773-.9.824-.34 2.808.89.651-.91-.926-1.25.275-.77 1.21-.02 1.353 1.2.804-.37.305-1.14.692-.06 2.736 1.56 1.017 3.01-.102 1.67.682 1.27 1.18.64-1.058.76-1.058.14-.926 2.09-1.973.01-.356-.52.071-.74-.427-.35-.56-.34v.43l-.356-.39-.111.4-.59-.11-1.252 3.62-.681-.49-.987.36-.722-.78-.712-.21-.926.76-.966.24-1.587-1.81-.335-1.27-.641.69-1.658-.09.824.63.305 1.5-.112.25-.6-.37-.875.17-.315 1.1-2.208-.66-.091.36-1.038-.95.051-.77-.712-1.08-.895.3-2.462-.25-.854 1-.956-.56-.438.31 1.74 2.51.976.54.509-.39.478.37.234 1.57-.488.97-.631.1-.732-.43-.56-1.01-.59.37-1.587-2.21-.345.08.437 1.38-.661.14-.041.4-.905.65v.38l-1.068 1.15.386.859-.051.49-.478-.15.153.55-.793.04-.377-.37-.447.26-.061 1.09-.692-.29-.143.49-.773.36-1.912-.57-.468.72-.742.19.112.39-.529-.33-1.201.72-.427-.54-.508.6-.397-.28-.061.36-.468-.01-.204.35.255.9-1.251 1.28-.804 2.59-2.106 1.55-.518 2.26-.478.63-2.645.81-1.526-.48-3.845.88-1.261-.32-.346.67-.519.17-1.037-.47-1.201.33-.518.64-1.231.57-3.143-.15-1.241-.39-2.024.6-9.47 1.17-1.486 1.08-1.332.04-.356 1.659-1.841 2.5-.051.89-.641.09-.508.51-.56 1.25-1.668.66-.458-.26-.529 1.08-1.088-.45-.356.45-2.614-.08.864-3.35 1.241-1.72.478-1.38-.518-.19.091-.369-1.251-1.13-.112-.5.499-.2-.112-.76-1.302-1.41.284-.34-.325-.16.173-.4-.499-1.6.428-.7-.245-.91 2.798-3.01-.478-1.1.183-.36.56-.23 1.149.45.132-.86.936-.23.03-1.32.875-.21-.254-.93.539-.24.915.36.336-.17.081-.67-.813-.66.091-.54-.386-.26 1.271-1.1 1.343-.25 2.706-3.829 2.512-2.53 2.217-.92 1.313.02 1.098-.42 1.851.3.824.75h2.32l.356-.85-.743-2.5.051-6.24-.499-.95.051-1.75-.254-.34 1.556-2.189zm284.548-11.77l1.271 1.18 1.862.75 1.2-.02.58 1.129 1.129.84 1.78.21.224.41-.194 1.12.346.56.834.34.692-.19.834.84 1.068.29.712.69 1.201.02.335.26-.051.77.733-1.18-.173-1.07.966-.94-.519-.38-.895.35-.122-1.81 1.79-.15-.793-.46.051-.53.793-.08.021-.539-.428-.06.031-.81-.926-.66-.264-.63.397-2.32 1.363-2.08-.906-.86.906-.8.376-.92 1.79-1.11-.478-2.06 2.085 1.48.407-.34.743.56.651-.48 1.22.8.743-.38-.254-.99.366-.75.58.18-.051-.97.671.05.59-.66.793-.21.418.51.467-.09.529-.72.539.14 1.15-.72.834.14.02-1.53.692-.34.936.41.468-.38-.163-.38 1.292-.19.152.33 1.221.37-.315.48-.743-.07-.102.37 1.119.6.651-.41.417-1.33.743-.53 2.044 1.82.011.56.274-.13.845-.35.356-.94.895.66.193.92.285-.67 1.017-.46.681.8.723-.58 1.017.08.569.41-.528.17-.041.32 1.231.86-1.384.27.041.56 1.312.31.265-.59.712.11.61 1.01 1.16.33.101.52-.346.38 1.526.73-.071.4 1.577 1.23.396-.23v.65l1.933 1.04.712.76.356-.05-.112.53.692-.25.112-.48.203.42 1.699.27 1.088-.61 1.129.01.082.88 1.81-.12.906 1.03.508-.76.458-.01.163.52.712-.21.854.22.265 1.1.345.21.692-1.09.763-.05.295-.46.793-.25.194-.58 1.047.25.855-1.49 1.627 1.54-.376.48 2.319 2.23-1.017 1.47.915.75-.681 1 1.882.939-.356 1.36h2.014l1.231 1.18.539-.15.386.29-.325.79-1.262.11.784.88-.641 1.24 4.821 3.35-1.037 1.97 2.248 1.65-1.618 2.3.885.64.946-1.2.997.72.031.35 1.332-1.57-.427-.29 1.414-1.98.895-.3-.549-.1.356-.51-.55-.2.143-.23.498.08 1.302-1.49 2.818 2.38.478.03.448.72 2.258-.36-.082-.35.712-.12-.02-.36 2.258-.1.234 1.51 1.129-.21.956.22.163 1.41 1.628.01.406.92 1.028.31.173 1.15-1.892.33.142 1.43-.814.22.163 2.059.387.03.152 1.33-.498-.14-.488.3.335.23-.417.18.214 1.72-.468.38-.142.86.305 1.76 1.78-.2.101.53 1.302-.17.896 5.89-.896-.02-.193.34-.417-.2-.254.72-.458-.32.783 5.24-.681 1.35-.6-.01-.173.999-1.455-.39-.254-.599-1.017.289-.448-.559-.468.3-.213-.92-.814-.75-.214.32-1.22-.55-.468.11-.316-.59-.498.37h.366l-.946.5-.691-.44.061.29-.824.25.183 1.41-.438.599.59 1.01-.712.44.804.62-.499.14.275 1.91 1.485-.17.407 2.07-1.688-.02v.46l-1.669.32.244 1.37.957-.06.244 1.56-2.096.52-.071.42-2.126.26-2.797-.28-.102-.43-1.668-.13.031.98-1.77.25-.397-.77-2.38-.01-.366-.32.264-1.04-1.363.58-2.726.01-.122-.91h1.536l.437-1.91-.661-1.03.366-.31-.376-.56-.834.54-.387-1.76-.742.25-.051-.26.712-.37-.265-1.39-.752-.19-.244-.63 1.088-.41-.437-1.749-2.645.6.397-.61-.245-.22-.274.21-.041-.64.468-.29-.041-.39-.6-.42-5.198 1.31-.284-1.59-2.198.17-1.322-2.18-6.266 3.16-.132-.92-6.256-1.44-1.556-1.09-1.536.5-.926-.44-1.688.67-2.411-.07-1.454.53-.794 1.17-1.577.4-.183-.33-2.39.3.01-2.02-1.19.16-.071-.29-.763.03.681 3.93-1.22.259.234 1.78.386.03.306 1.57 1.261-.09.366 2.53-1.221.28-.213-.57-.855.32.082.64-1.709.23.519 2.55 1.495-.68.346 1.36.956-.04.132 1.08-.783.56.447 2.98 2.198-.38.213 1.32-.295.11.071 1.33-.854.1.254 1.68-1.129.32.336 1.809.539-.03.417 1.67-.275.47-.213-.28.051.52-.387.16.844.4-.396.48.803-.13.265.96-.285.85-1.323.62-1.617.07-4.801-1.1-2.36-.91-2.177-.16-5.289 1.73-4.394.46-3.215 1.4-2.919.71-4.872.96-.946-.78-1.394-2.09-9.897 1.56-.295-1.43-1.546.51.02-2.66.519-.18.122-.65-.539-.12-.529-1.25-3.479.69.316 2.14-5.463 1.02.072.62.732.9-1.292.54-.061-.99-.987-.55.092-1.42-.254-.19-1.211.74-.956-.07.122-.73.621-.63-.123-.87-2.197.5-2.654-.62.05-.96-4.557.24 1.221-1.23-.824-5.199 3.397-.86-.142-1.13-.356-.06-.214-.96.58-.26-.325-2.25.803-.23-.396-2.26.518-.21-.183-1.71-2.126.4-.447-.22-.417-.87.478-.19-.448-1.98.356-.64.58.22.071-1.22.468-.38.173-1.02 2.35-.27-.122-1.279.213.23 1.109-.15.305 1.119-.376-1.749 2.889-.78-.082-.61.428-.06-.051-.36-1.699.43-.122-.69 1.577-.38-.479-2.31 1.018-.07.081 1.08.916-.08.142 2.49.498.11.438-.89.447.01-.824-1.52.763-.09.041-.37 3.967-.61-.071-.86 1.749-.32.021-.31.6-.23.122-1.29 1.526-.43-.509-1.91-.6-.09.071-2.62-1.404.07-.01-.99-.508-.3.376-.66-.081-1.07 1.007-.28-.865-7.739.376-.16-.03-.44.946-.03-.031-.54 2.553-.33.194.75 1.139-.35-.376-1.59 1.332-.03.305.66 2.859-1.58.691-.47-.203-1.5 1.536-.29.152-1.36-1.881.31-.122-.61-.57.07-1.628-1.56-1.118.1-1.099-.39-.366-1.2-.529.21-.234-.33-.102-2.18.682-.13.549.52 1.292-.19.905-1.22.305.36.926-.04.234 1.01.346.07.946-.44.356.3.763-.13-.041-.3.559-.13.224 1.46 1.139.13-.01-1.52.519-1.92.366-.18.631-3.089z"/><path d="M541.96 168.504l.641 1.35.62-.13.956 1.12-1.444.91.336.43-.316.31.529.48 2.533 1.09 1.882.09.254-1.24 1.19.21-.661 4.209-.295.32 1.627 3.26-1.586.52.01 1.04-.834-.45-.804 1.48 1.129.04.143.46 1.464-.03.916.46.712.03.376-.42 2.157.31.641-.24-.041 4.74 1.159-.12.56.94 1.363-.12.051.68-.885.08-.366.5.173 1.38-.702 1.16.803.82 1.119.12.254.72-.722.27.366.52-.01.96-.946.22-.071.449-.854.28.478 6.27 1.454 1.7-.6.91.153.83-.366.01.885.61-.214.51 1.078.85.987-.21.285.62 1.759-.81.529 3.55.651-.19.916.83-2.024 1.25.142 1.09-.448.51-.061 1.1 1.445.749 3.092-.359 1.251 1.189-.02 1.37.783 1.21-.071.65-.438.42.336.63 1.028.54 1.963.04-.092.63 4.415 1.47-.387 1.46.722.4.031.8-.549.9.793 1.6 6.947.47.021 2.41.59.46.559-.14.651.56-.936 2.35.306 1.14-4.008.08-2.726-.35-.163.46-1.333.179-.366 1.27.122 1.13-1.322.05-.285 1.31.488.88-.203 1.65-.682.59.102 2.1-1.261.22-.051-.93-2.37.01.071 1.49-1.312.01.01.73-.417.52-5.401.04-.132 1.26-3.611.1-.011 1.96-1.444.02-.163 1.58-.742.06.03 1.78.305.3-.193 1.21.529.25-.051 4.089-.539.02.041.8-1.231.28-1.058 2.14.071.94 3.947.12-.336 1.25.143.82-.305.36-1.16.04-.071.75-1.882.44.427.87-.264 3.64-.763 1.56-1.75 2.08-1.017.17-1.241-2.02-1.271-.4-1.109 1.12-1.282-.4-.874.14-2.564-.8-3.529 1.24-2.971.31-2.654-.74-3.052.67-.712.59.214.86-1.13.449-5.279 7.51-1.342 1.18h-.275l1.139-1.13-.193-1.03-1.109-1.13-1.739-.81-1.668.95-.824.87-1.353.32-2.055 1.17-1.444-2.25 2.451-1.95.214.23 1.424-.82-1.729-1.32 1.18-1.64-.835-.929-.681.54-3.296-1.53.916-.55-.387-1.91-.641.16-1.2-1.74-.275.11-.142-.4-.427.27-.112-.59-.376.42-.316-.51-.376.13-1.19-1.37 1.19-.07-.143-.27 2.696.24-1.261-5.81.61-.1.163.45 2.726-.17.356.67 1.475-.65-.071-.38 1.434-.9-.458-1.75.997-.25.875 1.93 1.363-.68-.285-.88 1.322-3.17.285-.02.092-1.579-1.811-.08.112-.49-.499-.22-.813 1.479-2.452-2.139-.254.24-1.851-3.05-.702.74-.743-1.17-.498.35-.702-.99-1.79 1.41-2.238-3.8-2.218 1.05-.63-.29-.092-.7.722-.15-.03-.49-1.333.21-.223-1.39 1.169-.18.082-.34.671.18.59-.99-2.675.28-.407-2.44-.498-.03-.529-3.28-2.848.39-.031-1.56.417-.09.275-1.16-.133-.48-.661.15-.244-1.559-.946.06-.244-1.37 1.658-.32v-.46l1.689.01-.407-2.07-1.485.17-.275-1.91.498-.14-.793-.63.712-.43-.59-1.01.437-.6-.193-1.41.824-.25-.051-.28.682.44.946-.5h-.356l.498-.36.305.59.478-.11 1.221.55.214-.32.803.75.214.92.468-.3.447.56 1.007-.29.255.6 1.454.38.173-.99.61.01.672-1.35-.783-5.25.457.32.244-.72.417.2.194-.33.895.02-.895-5.889-1.292.17-.112-.54-1.77.2-.315-1.76.152-.86.468-.38-.203-1.72.407-.18-.336-.23.488-.29.499.14-.153-1.33-.397-.03-.162-2.06.813-.22-.142-1.43 1.902-.33-.173-1.15-1.027-.31-.407-.92-1.628-.02-.162-1.41-.956-.22-1.13.21-.223-1.51-.58-1.33-.265-2.029.428-.08.295-.57-.753-1.92-.142-1.31-.621.01-.112-.32 1.028-1.54 1.017.22.04.61.773.4 1.475.08.214.34.59-.07.57-1.41 3.855.38 2.197 2.26.407-.82-.672-.07-.04-.4-.926-.75.427-.65.356.03.173-.78 1.506.21.193-1.01.447.08.418-.97 1.668.43-.153.49 1.699.96.041-3.31.712-.48.478-.97 1.342.03.082-.82 2.024.07.163-.91-.763-.18.356-.77-.855-.74.397-.46.305.19.234-.35-.386-.21.946-.42.142-.46.549.62.448-.06.102-1.64.518.05-.162-1.27.691-.12.397-.52 1.109.13.051.3.498-.34.498.18-.101-.26 1.017-.45-.183-1.089-.478-.46.285-.27 1.698-.29 3.113-1.64-.906-1.02-3.692-1.36 1.536-1.48.458-.51 1.932-.27 6.205 1.58 1.017-.22.021.26.661.06.234-1.2.641-.71zM48.867 194.612l-.203-.72 1.23-2.14-.833-2.069.65-1.17.052-1 1.16-.53-.143-.38-1.109-.39-.356-.94.885-2.19-.712-1.08 1.841-1.98.173-.69.356-.28.509.32.671-.5.722-3.15.692-.37.417.27 1.22-1.36.53.38.284-.15.59.67 1.373-.4 2.167.68.285-.54 2.055-1.43 1.322.52.336.65 1.413-1.6 2.737.4.366.57.519.08.254-.85.844.28.346-.53.824.22 1.658-1.28 2.685-.86.824-.13 1.15.98.62-.26-.02-.96.458-.83-.234-.359.396-.77-2.237.15-1.282-.29-.336-.56.458-.42.407-1.43-.926-.41-1.17.21-.091-.95.04-.74 1.374.34.63-.59.6.5.784-1.26-.244-.96 1.454-1.28-1.607-.74-.62-1.91.406-.6.977-.17.214-1.4-.468-1.13.366-.54 1.15-.09-.347-1.57 1.048-.65.03-.31.418.14-.143-.35.906.19.712.67-.499.32.366.6.814.08 1.048-.63.814 1.02 1.444.82.6-.39 1.516.66.783-.12 1.404 3.1.529 2.61.549.27.702-.34.427.3.346 1.18.783.53-1.109 1.62.092 1.6.427.44.112.87 2.92 1.43-2.483 2.869.02.86 1.516 1.72 1.994.2.763.4-.315 1.8.539.14.05.49-2.563-.6-.407 1.45 2.157 2.17-.03.96 1.77-.91 2.481 1.53.844-.81-.193 1.64 1.272 1.01-.977 1 .743 2.89.62.21.387-.27-.102-1.32 1.017-.91-.213-.68.681.24.855-.49-.184 2.53-.701 1.77h.61l.671-1.04 1.18.28.499.92.803-.11.275.3-.387.7-1.81.02-.692.46-.153.809.57.9.936.09.447-1.15.712-.739.468.07.509.669.386-.1-.315-2.629.804-.03 2.105.81.305-.38-.376-.91.254-.21.621.26.559.61-.681.8.183.43 1.739 1.299 1.353.17 1.872 1.88 1.414.87-.143.48-.915.69.122.45 1.343.52-.041.5-1.048.89.295.38-1.556 2.19.254.34-.051 1.75.499.95-.051 6.24.742 2.499-.356.85h-2.319l-.824-.75-1.851-.3-1.099.42-1.312-.02-2.217.92-2.513 2.53-2.705 3.83-1.343.25-1.272 1.1.387.26-.092.54.814.66-.081.67-.336.17-.915-.36-.539.24.254.93-.875.21-.03 1.32-.936.23-.132.86-1.15-.45-.56.23-.183.36.479 1.1-2.798 3.01.244.91-.427.699.499 1.6-.173.4.325.16-.285.34 1.302 1.41.112.76-.498.2.112.5 1.25 1.13-.09.37.518.19-.478 1.38-1.24 1.72-.865 3.35-1.323.16-.244-1.46-1.414-1.37.02-.64-.508-.63.224-.71-1.526-.25-.183-.59-.407-.13-.488.46-.57-.67-1.038.12-.111-.63-1.058-.56-.194-.6.255-.97-.753-1.19-.509-.24-.315-1.28-.64-.08-.326.28-.57-.99-.61-.14.407-2.639 1.719-1.46-.946-1.95-1.353-.84-.224-.74-.773-.29-.956-1.73.6-.86-.305-.54.468-.42-.112-.32.844-.89-.671-.77-1.414-.58.244-1.36-.264-.51-1.475-1.11-.936-1.39-1.709-.88-.498-.6.172-.83-.59-.51-1.81-.37.061.7-1.099 1.57-.427-.44-2.207-.45.02-.36-1.037-.69.091-.67-.427-.419.143-1.24-.53-.57-.091-.96.55-.79-.52-.58-.05-1.23.325-.54-.447-.46-1.058.43-.468.69-.377-.24-1.057.77-1.313-.24-.722 1.62.102.47-.366.29-1.669-.42-.467-.86.59-3.04-.662-.88-1.922.38-1.851-1.86-.204-2.32-2.848-.15-2.32-2.24-.05-.83-.437-.38-.834-.02-.295-.66-1.486-.38z"/><path d="M528.451 104.508l.336.14-.183 1.2-.662.29.031 2.35.681 1.4.672.27.61.869 1.18.39.641 1.07.915-.48 1.231.31-.356 1.02.01 2.78-.427 1.09.915 1.4.051.89 2.269 2.42 1.617 2.63 1.434-.27 1.892 1.36 1.312.31 1.14.76 1.475 3.12 1.037.73.295-.15 1.333 1.819-.692.39-.061.75.376.55 2.035 2.76-.621.58-1.8.01-.377 1.25 1.516 1.06-.01.39-.641.1-1.272 1.57-.752-.74-.814 1.85.783 1.17.539-.34.794.09.122.41-.56.29.417.3.478 1.66.611.27-2.106.57.468 1.01-.712.22-.102.58-1.007.07-.183.88.377 1.23-1.709-.14-.509 1.129 1.444.21-.142.46-1.292.96-1.241-.09-.386 1.4.437.4-.203 2.11 1.119-.01-.021 1.45.672.74-.662 3.92.194.92 2.197.47.346.94-2.004.75.417.54-1.577.72.173.47-.641.7-.234 1.2-.661-.06-.02-.26-1.017.22-6.205-1.58-1.933.27-.458.51-1.536 1.48 3.683 1.35.905 1.029-3.113 1.64-1.688.28-.295.28.488.46.173 1.09-1.007.45.092.25-.499-.18-.488.34-.051-.29-1.109-.14-.396.52-.692.13.163 1.27-.529-.05-.092 1.64-.457.05-.55-.61-.142.46-.946.42.376.21-.234.35-.305-.18-.397.46.855.73-.356.77.763.18-.163.91-2.034-.07-.082.81-1.343-.03-.478.97-.712.49-.04 3.3-1.689-.95.143-.49-1.658-.43-.428.97-.437-.09-.193 1.01-1.506-.21-.173.79-.356-.03-.427.65.926.75.04.4.672.07-.407.829-2.207-2.269-3.856-.38-.569 1.42-.59.06-.214-.34-1.475-.08-.773-.4-.04-.62-1.018-.22-1.027 1.55.112.31h.61l.143 1.309.752 1.92-.295.57-.427.08.265 2.03.579 1.33-2.258.1.021.36-.712.12.081.35-2.258.36-.448-.72-.478-.03-2.817-2.38-1.302 1.49-.499-.08-.142.23.549.2-.356.51.549.1-.895.3-1.414 1.98.427.29-1.332 1.57-.031-.35-.996-.72-.946 1.2-.885-.64 1.617-2.3-2.248-1.65 1.038-1.97-4.822-3.35.641-1.24-.783-.879 1.261-.11.325-.79-.386-.29-.539.15-1.231-1.18h-2.014l.356-1.36-1.882-.94.682-1-.916-.75 1.017-1.47-2.319-2.23.377-.48-1.628-1.54-.854 1.49-1.048-.25-.193.58-.794.25-.295.46-.763.05-.691 1.09-.346-.21-.265-1.1-.854-.22-.712.21-.163-.52-.458.01-.508.76-.905-1.03-1.811.12-.081-.88-1.129-.01-1.089.61-1.699-.27-.203-.42-.112.48-.692.25.112-.53-.356.05-.712-.76-1.932-1.04v-.65l-.397.23-1.577-1.23.071-.4-1.525-.73.346-.38-.102-.52-1.16-.33-.61-1.01-.712-.11-.265.59-1.312-.31-.04-.56 1.383-.27-1.231-.86.041-.32.529-.17-.57-.41-1.017-.08-.722.58-.682-.799-1.017.459-.285.67-.193-.92-.895-.659-.356.939-.844.35-1.272-5.089 1.495-3.92.407-.31 1.312.65.55.85 1.322-.08.956.37 2.879-.33.244.19-.397.31 1.424.85.417-.93-.274-1.27 3.255-4.01-.926-.38.448-2.23-1.597-.54.691-2.39 5.025.95.112-1.54-1.922-.67-.041-1.26-.783-.17.223-.389 2.564-.55-1.414-3.57-.692-.91.285-.75-2.777.41-.722-.82-2.187-.24-.875-.48.448-.8-.458-.22.509-.32-.102-.76-.936-.11-.6-.65.061-1.85-.336-.81.702-.26-.173-1.34-2.533-1.46-.661.28-1.902-.3-.498-1.4-.753-.02-.804.74-.752-.84-.6.12-.977-.79-.926-1.83-.712.19-.325-.31-.936-2.599 3.652-4.74-1.007-1.35-.102-1.53.346-1.09 1.058-.36-.377-1.35 1.282.12.224.31.122-.34.712.2.041.63.447.1.977-1.32-.051-.76 1.454-.62 1.292-1.36 1.424.7.183-.48 1.292.6.153-.43.661.02.295-1.56 1.251.06.916-.61-1.119-.75 1.139-1.56 1.749 1.25-.061-1.25.916-.02.641-.71.559.9.631.06 1.241 1.12.325-.3.682.44.356-.58-.6-.78 1.912-.13.712-.53 1.221.29-.143.26.488.35h.611l.142-.58.509-.15.183-.839-.804-.2.183-.36 2.645-.19 2.197-2.25.112-.63-.336-.33 1.282-.85.183.43.509-.24.559.33.682-.97 1.292.43 4.78-.94 3.245 1.05.539 1.54.509-.23 1.587 2.39 1.495 1.16-.326.769.896 1.68 2.42.23.407-.25-.193-.36 1.119-.52.915-1.03.357.95h1.424l.518.7.926.17.041.46.742.22 1.282-.2.224.51-.59.06.142.64-.59.64 1.678 1.33 1.333.28.946-.95.417-1.56.387.13.528-.64 1.089-.23.753-1.1 2.176-.63.997-.97 2.401-.829 3.143-.07.814.33 1.983-.33-.041-.41 1.089-.14.508.32 4.852-2.38.712-1.4.774-.57 2.726.23 2.268-1.4zm-94.924 226.269l1.485-.21-.234 1.259-1.16-.329-1.515-1.55.722.12.702.71zm-74.407-3.46l3.438.6 3.519 1.12 1.719-.33 1.831-1.11 1.241 1.01.977.16.427-.49 1.18.83 2.004.17.935.55-1.281.36-5.31-.39-11.097-2.42.417-.06zm65.659-2.76l-.6.41-.204.7-1.179.62.142 1.36h-.254l-.407-1.76 1.342-1.28 1.16-.05zm12.298-.67l1.292 8.039 3.265 8.76-.56.29-.783-2.6-.763-1.02-.61.13-.315 1.09-.682.65-.793.11-.275-.66.712-1.65.417-2.96-.447-.53-.021-.87 1.129 1.11-.874-2.19-.662-.269.173-1.04-.396.04-.316-1.64-.63-.65-.641.09-.549 2.01-.753-1.47-.997-.52.356-.83-.285-.71-1.322-.52-.01-.48 1.739.3 1.363-.5.549 1.48.377.15.63-.89-.305-2.24.692-.58.295.57zm-110.101-5.23l1.648-.22.204.25-.702.21-.102.35 10.264 2.49-8.86-1.94-3.438-1.27-1.811-1.47-.956-1.64-.132-1.88.417-.84.325.07-.05 2.51.366 1.28.864 1.11 1.963.99zm50.433-65.927l2.654.62 2.198-.51.122.88-.631.63-.122.73.956.07 1.221-.73.254.18-.092 1.42.987.54.061.99 1.292-.54-.732-.89-.072-.62 5.463-1.02-.305-2.14 3.478-.69.529 1.26.529.12-.112.65-.518.18-.021 2.65 1.536-.51.295 1.43 9.897-1.56 1.394 2.09.946.78 4.872-.96 2.94 1.51.59.64.631 3.64.457-.02.682 4.02.458.37.783-.79.986-.13.58.47.926-.19-.102-.52.692-.14-.132-1.13 3.478-.67-.152.82-1.109.33.346 1.66.976-.15.275.79.122.81-1.332.24.996 6.999 1.13-.1.488 4.17.773-.1.315 1.51.661.03.122.98 2.116-.26.132 1.04 1.679-.26.59 4.06 1.759-.15.418 2.67-2.076.31.275 2.119-.508.02-.011 1.06-.478.03.01.44-2.715.37.061.65-1.13.16.275 1.82 1.628-.18.101.66 2.147-.27.325 2.81-1.465.41.316 1.77.905-.03.275 1.55 4.607-.72.184 1.33-.468.13.315 1.5 1.831-.27 2.634 1.6 1.15-.15.62 8.939.987-.09-.875 1.1-1.414.86-4.78 1-2.177 1.75-.702 2.1-1.312.06-.519-.66-.956.26-1.607-.76-1.953.52-.204 1.18.743 2.61-1.272 3.13-.661 1.08-1.465 1.32-.305-.56-.468-.21-.335.24-.55.49-.518 1.389-.336-1.629.305-.66-.478-.45-1.699-.42.061-.6.539-.78 1.567.24v-.31l-1.19-.21-.305-1.61.783-.6.498-.94-.162-.4.406.06.367 1.71.427-1.38 1.434-.57.702 1.28-.041.27-.457-.08.05.44.58.21.641-1.43.071-2.41-.814-.5-.762-1.07-.478.03-.367.51v.72l.57 1.09-.946.24-.142.4-.987-.21-.814-.74h-.458l-.264-.69-.407-.01-1.394-1.42-1.007.25-.589-.9.071-.96-.58-1.23-.549-.14.529 1.45-.499 1.76.417 1.25.661-.24.265.39-.661 1.11-.153 1.7-.702.17-.112-2.63-1.18-1.32-.803-2.3-.763-.62-.448-1.17-.986-1.11-.509.03-.498 1.39-.814-.7-.437.5 1.505.43 1.038 3.11.976.87-.153.61-1.505 1.16-.356-.43.651-1.58-.509-1.36-.63-.19-.438 1.4-.885.29.143.24.702-.33.478.42.315.59-.132.71.814.55-.499.96-.498-.95-.55-.33-.661.84-.488-.07-.061-1.03-.743-.68-.712 1.08.031.92-2.39-4.26-1.007-.78-.814-.21-.967.34-.528-.81-.387.52-1.017.17-2.157-1.69-.295.65-1.485.04-.213.69.763 1.35-.682.13-.926-.47-.549-.45-.102-.56-.366.17-.854-.82.152.59-.996.17.742 4.23-.712.25-.275-.71-.874-.45-.662 1.08h-.539l-.305.88-.468.12-.457-.34.172 1.17 1.577 1.13-1.526-.31-.671.32-.173 1.06.834 1.16-.905-.07-1.048-.85-1.139.41-.122.52-3.011-3.99-.285-.11-.488.45-.193 1.4-.865-.14-.071-.65h.641l.295-1.41-.804-.59-1.027-.29-1.251.33-.306.19-.01 1.14-.325-.18.152-1.24.763-.94-.722-1.03.661-2.09-.763 1.32-.559-.17.285.71-.438 1.16-1.871 1.52-1.618-.59-.488-.86-1.21-.12-.336.37.315.51-.519.75.418.49-.489.19-1.688-.09-1.007.31-2.716-.54-.936.29-2.095-.61-.855.29-.183.41-2.116.45-.824-.37-1.698.38-2.014.95-.183.46.264.2-1.76-.4-10.06-3.09.773.14.417-.62-.305-1.04.133-.24.152.34.305-.12-.285-.73-1.098-.32-.478.43.407.31-.377-.04-1.322-1.36-.895.01-1.333-.98-.478-1.29-.936-.4-.467.44-2.137-.36-.691-.67-.377-1.03-1.536-.33-.661 1.36-3.041-.15-.366.38-.163-1.41-.61-.12.203-.56.926-.72 1.444-.56 3.072-.08 1.363-.41 1.455-.69.518-.92.906-.05.579-.47-1.078-2.529-.569-.6-.478-.11-.896.7-.691.03-5.066-1.94.549-.92.814-.04.387-.89.702.27.864-.34.193.38 2.665.95 2.106.11 1.088-.41 1.669-.04 2.593.93 2.106.11 2.818.71 2.034-.41.753-.7.091-.42-.803-.12-1.292.26-.895.48-.082.37h-.61l-1.19-.77.763-.23-.051-.35-1.068-.2 1.261-.08-.61-.25-.173-.63.529-.5-.559-.46.478-.09.04-.98-.325-.4-1.689-.85-3.723 1.64-1.22-2.69-1.689-.11-2.4-1.99.173-.47 1.444-.08-.397-.55 2.309-.37-.325-2.19-.458.07-.183-.81 1.678-.41.316.27 1.739-.29.193-.54 1.648-.36-.213-1.72 1.261-.629-.844-1.44 4.241 2.649.926-.09-.254-1.719 3.336-.54.234 1.219 2.126-.269-.214-1.25.448-.1-.275-1.57.377-.05.091.62.946-.15.417.91 3.631-.26.265 1.949 2.055-.319.366.33.142-.52 1.373-.16.041-.37 4.669-.83-.092-.56-.874.15-.163-.86-2.126.36-.437-.19-.102-.87 3.051-.68-.122-.8 1.984-.25-.153-.77-.935.1-.641-2.03.691-.61 2.472 1.34 1.567-2.41-4.669-2.81-.855-2.32 1.414-1.92.295-1.26h1.546l.071-.32.387.79.743.12-.051-.45 1.007-.63.02-.97 1.109-.16.519.87.569.09.458-.3-.448-.39.051-.769 1.679-.25-1.455-1.63-.692-.55-.457.02-.061-2.06 1.108-.49-.427-2.77-2.868.45-.173-.38-.143-2.94.763-.24-.03-.91.539-.21.142 3.02 2.268-.34-.447-4.35.773-.41-.163-1.13-.142-.3-1.546.92-.122-2.73zM140.832 119.157l.386.36 1.933-.38.569-.86.051-.94.661-.78 1.262-1.11.671-.06.539-.669 3.733.09-.386-.2-.041-.72.743-.05-.224-.45.529-.41.132-.69.631.14-.021-.49.489-.01-.184-.67 1.16-.5.509-1.48 1.597.17.427-1.45.732.14.407-1.61.621.16.193-1.59.681.1-.325-.71.275-1.04.345-.1-.142.95 1.556-.34.122-.42-.935.29.132-1.01.315-.01.275-.68 1.169-.03.255-.93.325-.1.702.73 1.567-1.94 1.078.73 1.688.44.244-.57.713-.29.315-1.06 1.79.39.092-1.26 1.495-.92.508.34.011 1.42 2.187-.1.498 1.59 1.729.99.275 1.19 1.098-.08-.254 1.81-1.149 1.93-.285 1.46 2.36 1.4-.082 1.97 1.719.03.601.46 1.21 1.22-.58.21.143.32-.55-.06 1.109.98.02-.27.692.06.01.749 1.272.23.335.88.987.7.336-.02.488-1.01 1.872-.61-.122 2.29.488-.1.549 2.36.641-.09-.203-.78.935-.29.041 1.17.549.66-1.668.73-.224 1.14.56.43-.59.07.142.54-.468.88 1.791.5.437 2.13-.448.57-.905-.59-1.058 1.7-1.18-.76-.457-.03-.143.41-.376.05.03 1.02.855 2.27-.549.19-.062.61-.335.06.02 1.51.458.1.366-.4.895 1.05.997-.13-.478.85.478 1.309-.132.62 1.251 2.21.346-.61 2.054.35-.874 1.68 1.017.2 1.963 2.01.682-.11.213-.81.641-.13.071.92-1.047 1.06.162.41-1.617.22.112 1.67 1.515 1.1.031 1.01-.071.58-.407-.25-.285.91-.59.27-.498.96 1.251 1.16-.102 1.3-.61.55-.651-.8-.58.32-.01 1.74 1.597.44-.214.519-.468-.03-.274.75-.417.59.213.62.56-.24.915.42.427-.17.743.82.793-.3-.579 1.85-.743.3.061.42.539.09.01.43-.549.1.051.58.966.36.58 1.15-.234.87.387.69-.041.94-.458.69.855.97-.611.51.366 1.18.631-.07.224.28.213 1.18-.508.51-.987.28-.732-.51-.468.07-.153-.44-.773.61-.498-.97.051 1.26-.845.58.102.37-.641.64-.834-.36-.6.4-1.973-1.44-.285.34-1.282.22.133 1.13-.712.69-1.526-.99.091.95-.997-.43-.488.41.285.87-.743.88.672.909-2.106.09-1.983 3.12.641.4-.204.56.794.99-.031.84-.753.72-.081 1.77.844 1.28.031 2.15v.58l-.214.8.56.85-.733 1.07.082.36-.682.08.031.51.712.81-.407.68.559 1.55-.875 1.149-.579 2.27-.692.06-.305 1.14-.804.37-1.353-1.2-1.21.02-.275.77.926 1.25-.651.91-2.808-.89-.824.34-.773.9-1.118.05-2.94-.69-.326-.9-.783.64-1.363.07-.885 1.35-.783.35-1.353-.89-.681-1.22.203-1.14-.743-.28-.874.74.61 1.49-.58 1.03-.692-.1-.356-1.58-.691-.45-.305.44.64.62.153.74-.112.71-.417.35-.844-.03-1.546-1.47-.804-.01-.509.38-.142.53.326.42 1.678-.25.183.79 1.007.9.203.68-.569.41-1.384.03-.813-1.06-.794-.05-.112.65.631 1.64-.915.52-1.638-.33-2.299-4.38-1.475.35-.264-.47-.906.29-.905-1.14-.376 1.06-.407.01.173-.79-.977-.53.753-.93-.539.08-.641-1.3-1.078-.6 1.027-.36-.152-.33-.997-.12.661-.84-1.292.38.163-1.16-.997.07-.041-.79-.63.1-.163-.309.61-.54-.325-.58.447-1.41-.712-.81.661.18.092-.24-.519-.39.214-.77-.712-.18-.265-.89.255-.23.691.6-.325-1.18.763.25.356-.44-.814-.14-.59-1.6-.519-.27.387-1.21-.295-.88.6-.67-.387-.13-.539.41-.396-.73h.417l-.102-.85.478-.97-1.037-.96 1.21-.57-.977-.24-.203-.41.468-.35.6.2.204-.36-.58-.84.325-.58-.783-1.02 1.027-.91-.803-.2.396-1.189-.244-1.52.265-.27-.488-1.36.732-.11-.732-.53.162-.51-.346-.77.356-.77-.162-.43.417-.09.04-1.15 1.404.02-.03-.53.498-.47-.519-.74.458.09-.203-.53.366-.16-.427-.46.03-.73-.773-.73.01-1.11.56.08-.356-.66.366-.52-.773-.46.437-1.17-1.343-1.55-.091-2.63-1.689-1.589 1.15-2.02.712-.43.234.53.519-.18-.387-1.48.234-.42-.488-1.11.905-.78.224-.66.854.06.031-.8.529-.23-.112-.63-1.048-1.17-1.699-1.08.773-1.23 1.069-.61-.194-1.52-.498-.31-.315-1.51-1.302-1.92.813-1.11-1.393-.709-.061-.34-.895-.44v-.41l1.068-.85-.662-1.88.112-1.02.682-.52.041-.47 1.088.09.356-1.25-1.16-.43.723-.59.651-.03.02-.5h.315l-.163-.74-.691-.47-.031-1.55 2.503-.17v-.58l-1.343-1.01.295-.6-.702.03-.468-.57.315-.29-.223-.84.295-.3zm155.853-17.28l-.193 1.41.396.51v.91l1.699 1.51.193 1.81-1.373 1.82-1.963.9-1.577-1-.854.1-.326.4-.132 1.51.397.3.132 1.21-.529.9v1.009l.397 1.61-.916 1-1.047-.4-.987-1.51-.783-2.209-.336-2.51-1.048.1-.915-.81-.59-.1-.855-2.52h-1.047l-.519-.4-.458-2.02-1.312-.2-1.312.4-.651.41-.265.7-.722.1-.264-.9 1.119-2.73v-1.01l.518-.81 1.048-1.01.916.2.335-.6-.264-.61-1.373-.91-.072-.51.326-.2 2.757-.2 2.42.4 3.083 3.24 1.576-.91h2.95l.651-.51.661-1.31 1.18-.41 1.902.61.59.61v1.41l-.661.41-.722-.2-.855.4-.325.61z"/><path d="M288.405 60.47l-1.841.41.305-1.8-2.035-.15-2.41-2.39-.265-.44 1.068-.91-.569-2.17.356-.22-.59-.14-1.526-1.99-1.465-1.19-1.536-.52-.966-.91-.427 1.2-1.211-.99-.224.11.234.79-.284.16-3.54-.89-.163.79-.722.45-.468-.15-.376.72-1.313-1-1.108.28-.407.38.224.3-.428 1.43-1.22-.63-.936.4-.376-.54-.397.13v.84l-1.668-.86-.611-1.7.631-.28-.061-1.13-.254-.8-.712.01-.244.46-1.231.54-.153.46-.407-.16-.488.35-.336-.3-.376.62-.478.1-.02.89-.834.66-1.496-.95-.763 1.8.092 1.26-.641 1.35-3.102-.73-.987.5-.783.95.01.5 1.2-.18.153 2.99-1.485 2.71-.885.13.02-.33-2.156.68.935 4.56.814 2.84.295.08.173-1.63.57-.14 2.207 1.49 1.587 2.27 1.699 1.52-1.567 2.39.081 1.67.346.36-1.19-.46-.966.06-.051 1.939.834.28.844.84.733 1.79 1.078.86.285.62-.753 1.66.966.64.458-.21.254.81-1.413-.27-.448.24.102.75.742.45-.427.31.142.56-1.332.17 1.231.28.844-.51 1.393.22.031 1.1.854 1.14-.722 1.65-1.546 1.11-.03.72-.814.47-.59-.28-.295.19-.193.24.305.45-.6.61.112.3-.55-.1.122.3-.447.19 1.637 1.43.387.999-.122 1.27-.458.72-.936-.08.255.58-.244.64 1.546.76.142 1.51-.915.67-.946-.59-.234.94 1.607.19.132.54-1.027 1.27-.926-.07.539.83.692-.16.356-.53 2.553-.43.926 1.33.04 1.15.682.17.264.459.661-.319-.752 1.549.346.59 1.576.44.753-.18-.58 1.46.407.9-.793.3 1.251 2.33-.488.21-.397 1.18-1.048 1.15 1.638 1.53-1.139 1.37-.061.45.64.05-.946.66 1.618 1.86-.082 1.49-.59.46.723 1.42-.255.41.967 1.09-.163.319.753 1.33-.306.67-1.861 1.01.803.44-1.495 1.37.458.22-.468.5-.376-.22-.702.92-.59-.2-.204.59-1.708.43-.265.84-1.129-.81-.539.44.173.49-.499.74-.417-.6-.702.6-.447-.12.854 2.25-.813 1.79.305.81 1.617.02-.132 2.22.844.35-.356.71.977.67-.834.79-.265 1.4 1.027 1.919.387 1.91.966.88.539-.12-.071.53-1.251.57.122.61 1.485 1.17-1.2 2.02-1.841.88-.163 1.08.631.51.162 1.49.55.74 1.139-.05 1.628.92-.275.8.142.76.387.04-.499.58.997.87.794-.14.824.59.335-.96.478-.24.295 1.42.478.27.733.16-.366.77-.631.22 1.312 1.429 1.689-.33.274.41 1.16-.51.976.09-.305-.749.773-.26 1.17-2.25.834-.33-.041-1.43-.437-1 .203-.57.407.22 1.292-.35.549-.76.529-.13 1.567.44.417 1.91.702.83.529-.79-.468-.97.722-.32.57-1.2.101.49 1.78-.18-.406 2.72 5.97 1.01.082.94.315.05.855-3.33.712-.2-.122-1.24.813-.24.031-.96 1.139-.69 1.567 1.92h.671l1.129-1.34.447.17.804-.97 1.058.69 1.231.01 1.953 1.25.681-.67 1.139.01.641-.49 2.238.1.6-.5.834.13.448-1.14.356-.01.142-1.36-.508-.46 2.583-.38.377-.5-.061-.8.844-1.13.539.75-.163-.87.753-.26 1.068-1.02.254-2.4.407-.62.367-.17.549.56.183-.49.315.04-.437-.91.335-.34-.661-.1.183-1.149 2.37-3.55-.101-.83.457.22.173-.42-.722-.4.366-1.48.367-.23-.478-1 .264-1.26-.865-.69 1.028-2.17-.336-1.09 1.18-.74.559.49 1.089-1.39 2.919-.91.082-.39-.936-1.39-.499-.15-.02-.4.427-.29-1.281-.69-.763.34.824-.93-.59-.069.295-.72 2.817-.23 1.282.22.58.52.142.409-.722 2.03.03 1.74.59 1.23.895.2.295.73.682-.12.203.93.417-.11.173-1.37 1.333-.2.366-1.02.539-.16.173-.49.773.05.163 2.69 3.407.3 1.313-2.2.651-.05-.072-1.36.926-.82.661-1.65 2.492.17.448 1.13.58-1.23-.631-2.839 2.258-1.3.539.08.153-.49-1.984-.47-.742.18.132-2.37 2.136-1.17-.488-.79-.387.13-.376-1.07.987.28 1.149-2.24-.152-.37.691-.21 1.455.91 1.017-1.79.702.08.336-.44-.926-1.01.529-1.77-.204-.24 1.445-.95-.377-.59.743-1.05-.244-.61-.082-.36.59-.759-.122-.42-1.281-.23-1.15.33-.274-.97.763-1.17-1.709.78-.875-3.06-1.963-.66.366-.59-.488-.26.671.08.081-.61.519-.06.254.55 1.241-.39.631-.9-.346-.63.346-.96-3.794-.16-1.058-2.68-1.343-.64-.844-1.26-1.638.44-.02.79-.885.16.163 1.27-.387.22.092.9-3.225-.17-.671.68-.702-.21-.01 1.05-.529.61-2.075-.27-.529.46-1.129-.57-.183.4-.875-.02-1.81 1.14-.763-.07-.143-.8-1.495-.9-1.414 1.78-.366-1.37-2.116-.79.021-.88-.285.03-.133-.6-1.973-.36-.01-.71-.682-.01.021-1.06 1.709.12.305-.34-.275-.37.234-.37-.885-.87.763-1.43-.142-1.29-.387-.13-.02-.45-.539.18-.041-1.18-.804-.06.031-.49-1.505-.91.071-1.27-1.668-.27-.357.84-3.753.04-.244.34-1.709-.47-.376-.4-.458.29-.122 1.12-.763.14-.57-.03-.142-.58.448.07.03-.56.997-.78-1.383 1.02-2.014-.94-1.272.32-.081-.66.437-.83-.539-.85.468-.17.529.41.132-.72.478-.41-.417-2.33-1.017-.57-.183-.48-1.587-.42-.804-2.359-.64-.87-.021-1.92-1.332-.55-.143-.87-3.417.21-.224-1.6.478-1.16-.814-1.12.956-.45.153-.4-.824-1.19-.122-1.89.376-.51.895.12.428-.27-.814-.4.498-.93-.905-1.2.295-.33 1.2.12.316-.25-.051-.81-.539-.72-1.109-1.01zm10.843 40.188l-.651.4-.722-.2-.855.4-.529 1.31.59 2.52 1.506 1.11.193 1.81-1.373 1.809-1.963.91-1.577-1.01-.854.1-.326.4-.132 1.51.397.3.132 1.21-.529.9v1.01l.397 1.61-.916 1-1.048-.4-.986-1.51-.783-2.21-.326-2.52-1.048.1-.915-.81-.59-.1-.855-2.519h-1.047l-.529-.4-.458-2.02-1.312-.2-1.312.4-.651.4-.265.71-.722.1-.264-.91 1.119-2.73v-1.01l1.576-1.82.916.2.325-.61-.264-.61-1.374-.91-.061-.51.326-.2 2.757-.2 2.42.4 3.082 3.24 1.577-.91h2.95l.651-.51.651-1.31 1.18-.4 1.902.61.59.61v1.46zm70.044 67.326l1.159.55 1.373.15 1.496-.64.488.44-.132 1.16.345.53.774.09.64.83 2.625.11 1.464 2.26-.295.68.387.6.132 1.67.885-.16.539.54 1.536-.12-.02-3.36-.315-1.04.234-.04.671.81.102.79.315-.14.926.84-.438 1.1-.824.28.57.51.854.17-.122.33.621.52-.163.74.519 1.12-1.089 1.16 1.018 2.18-.519.19.193.38 1.109-.17 1.698 1.3.194-1.48.61-.01.02.32.234-.29 1.323.16.234.06-.102 1.86 2.167-.77.376.93.834.04-.214-.32.957-.11.62-.93-.407-.22 1.19-1 .082-.61.956-.25.661 1.13 1.027.85 1.597-.28 1.902.42 2.696 1.8-.631 3.089-.366.18-.519 1.92.011 1.52-1.14-.13-.223-1.46-.56.13.041.3-.763.13-.356-.3-.946.44-.346-.07-.234-1.01-.926.04-.305-.36-.905 1.22-1.292.19-.549-.52-.682.13.102 2.18.234.33.529-.21.366 1.2 1.099.39 1.119-.1 1.627 1.56.57-.07.122.61 1.882-.31-.153 1.36-1.536.29.204 1.5-.692.47-2.858 1.58-.306-.66-1.332.03.376 1.59-1.139.35-.193-.75-2.553.33.03.54-.946.03.031.44-.377.16.865 7.739-1.007.28.081 1.07-.376.66.508.3.011.99 1.403-.07-.071 2.62.6.09.509 1.91-1.526.43-.122 1.29-.6.23-.02.31-1.75.32.071.86-3.967.61-.041.37-.762.09.823 1.52-.447-.01-.437.89-.499-.11-.142-2.49-.916.08-.081-1.08-1.017.07.478 2.31-1.577.38.122.69 1.699-.43.051.36-.427.06.081.61-2.889.779.376 1.75-.305-1.12-1.108.15-.214-.23.122 1.28-2.35.27-.173 1.02-.467.38-.072 1.22-.58-.22-.427-3.07-1.342.71-.356-.3-.926.21.051.29h-1.618l.55.63.203 1.72-3.051.52-.417-.92-3.418.57.163 1.78 1.312-.26.325.98-3.153.57.122.72.702-.05.275 1.64-.702.12.152.8.346.24-.814 1.57-7.283 1.44-.549.03-.234-.63-1.922.61-2.198-1.73-2.156.53.01 1.01-.6.15.244 1.56-2.299.46-.203-.53-.549.7-.326-.48-.498.07-.204-1.45-.702.09-.457-1.14-.529.04-.214-.59-3.174.42.061.62-4.373.58-.306-1.64 1.414-.3-.478-.96.061-1.03.926-.05-.234-2.71-.834.17-.346-2.46-2.065.4-.224-.19-.874.73-.723-4.08.061-.48 1.709-.42-.468-2.999-2.492.45-.346-1.3-1.515.2-.305-.98-1.679.31-.051 1.18-.539.27-.325-.45-.529.08.264 1.969-1.383.07-.061.46-.509.32-.122-.72-.58.04.245-.92.691-.27-.437-2.049-2.34.43.021.43-.855.19-.407-1.19-.579.63-1.404.31-.193-1.12-2.899.93-.55-2.72-.691.1-.682-.56.417-.7-.956-1.27-.773-.13-.081-.46-2.889.44-.132-.49-2.472.49.356 1.78-1.943.13-.234.92-.895.36-.458-.35-1.027.28-.305-1.13-.651.05-.428-.42-.03 1.04-.722.1-.316-1.17-2.207.19-.152-.48-2.432.59.255.69-1.068.28-.163.53-2.258.03-.997-1.11-.804.99-.284-.61-4.262-.37-2.269 1.59-1.312-.21-.814.32-2.227-.72-1.841-.02-.611.57-1.77-.44-.813-1.46-.896-.03.153-1.21-.681-1.13-.55.68-1.475-.78-1.434 2.4-1.465-1.43-1.759.69-.458-.47-.295-.7.346-.98-.387-.7.071-.81-.793-.88.02-.43.428.1.406-.42.316-1.24.671-.15.285-.86-.834-1.08 2.777-2.34-.204-.46 2.95-1.23.641-1.16 2.777-.46 1.505 1.43.723.07 1.149-1.2.173-1.109.427-.39 1.943 1.199.386-.06.896-.33-.041-.819 1.719-.36.681-.54 2.157-.33.549-2.31 1.719-.44.926.96 2.899-.17.091-1.19-.295-.25.397-.48-1.383-1.15.864-1.32 1.414-.49.438-1.69-1.18-1.23 1.149.06.519-1.17.386.14.061-.59 1.994-.84 1.282.41.681-.06.102-.43 1.689.63.284-.66.743.88 1.699.29.386-.15.061-.64 1.74.15-.092-.58.264-.03.428.43 1.088-.16.244.35.733-.19.803.51.336-.15.488.94.621.26.203-.35.732.56.316-.67.224.19.356-.46.396.26.672-1.01 1.169.24.377-.66 1.19.17.356.88 1.607-.46.681 1.55.835-.03.091-.58.855.53.498-.98-.071.67.681-.55v-.51l.55.34.193-.29-.356-.44.997-.87 2.573-1.16.02-.71 1.109-.69-.305-.31.529-.93-.264-.34.742-.63-.427-.89.295-.279-.397-.23.59-.61.407.3-.529 1.029 1.434-.949 2.248.42.519-1.76 1.617.22 1.648-.66.316-.5.701.74.631.04 2.502 1.39-.02 1.249 1.017-1.219 2.045-.4.752-.91.784.71 1.403-.03-.112.68.387.13.234-.42 1.353-.06.275-.25.04-1.27-.712-.53.041-.66 1.485-.43.285-1.25 1.088.59.519-3.7.936-.05.04-.98.743-.02.071-.29.488.6 1.78-.38.112.57.438-.13.315 1.1-.203.64.417.25 1.424.2.712-1.17.315.67.732.24-.244.26.255 1.15.844-.38.793 3.86.906-.04-.285-1.37 1.19.4.275.43.803-.69.092.47 2.421-.16-.397-.83.305-.53.661.1.102.38 1.109-.12.122.61 3.804-.8.01-.5.956-.1-.04-.33-1.465-.62.447-.82-.437-2.01-.519-.41 2.645-1.13.01-1.13-4.008-1.35-.59-.88.529-1.24 2.513-2.3.336-.84zm188.525-43.118l.804 2.53-.102.96 2.208 1.22.559-.89 1.251.24-.071.62.437.04.336.93 1.322.41 1.964-1.03 1.129.23 1.037.91 1.129-.93-.04-1.37h.315l.834 1.01-.875.97.214 1.47 1.037.41.794 1.469.824.12.64.87 1.14-.01.997.77 1.719-.26.64.58-.427.53.275.92-.234.2.834 1.58.62.03 2.543-1.46 1.465.32 1.434-1.04.875-1.41 1.607-1.32 1.547 2.55.142 1.76.702 1.41 1.22 1.18 3.174.9 2.34-1.09 1.454.23 1.811.96 2.309.23-.356 1.3 2.054 4.9 3.123.94 1.974 2.04 2.949-.15 1.15-.41 1.109-1.47 3.194-.38.61.32 2.421-.88.04 1.03 1.028 1.38-4.313 2.509-.336 2.93 1.618 2.84 2.115 1.47 1.699 1.8-.498 2.77 1.403 1.42-.122 1.1-.529.28-2.126-.01-2.075 2.71-1.566.41-3.082 4.889-.092 1.45-2.024-.35-2.451.11-1.323 1.05-2.644-.59-.692.56.386.3-.651 1.82.417.47.682-.52.804.61 1.057.08.204 1.02 1.098 1.42-.508.75.651.69.274-.21.601.45.335 1.11.611-.77.284.48 2.289-.27 1.16 1.16 1.322.26.407-1.71 1.037-.81.804.45.671 1.96-3.448 3.98-6.093-2.47-.264.27.173.56-.387.03-.234.65.112 1-.57.71.051.64-1.037.04.01 1.11-.438.18-.05.689-.662.29.255.36-.285.39.498.14.122.96-.681.75.315.16-.03.56-.621.3.092.53-1.16 1.49.946 1.18 1.963-.22.244.4 1.374-.52.539.42.569-.05-.091.34.936.48.59 3.04-.692.41.03 1.48 1.72 1.25-.234.59.671.73-.132.86.396.31-.396.37.569.8.621-.58-.214.85.387.97-1.933.88-1.363.02-.275 1.209 1.404.04.285.57.346-.14.468.6-.204.57.316.33 1.2-1.63.559.18-.223-.16.376-.56.458-.15 1.18 3.2-.428.57.01.92-2.298-.2-.194 2.4-.935.12-.316 1.86-.976 1.26-.163 1.86-1.068.61 1.617.95.031.44-3.723.06.641 1.42.722.51-.254.7.366.3v1.44l-.438.12-.457 1.44.01 2.439-1.068.23.01 1.08-.905 1.05-3.916-.6-1.994.1-.682.57-.457-.35-.509.26-1.414-1.73-1.18.34-.366.87-.61.33-.967-2.05-4.984.2-.254.67-2.899.19-.112.42-2.095-.49v-.94l-.377-.01-.305-1.13.936-2.349-.651-.57-.56.14-.59-.46-.01-2.41-6.947-.47-.794-1.6.55-.9-.041-.81-.712-.4.387-1.46-4.415-1.46.092-.63-1.964-.04-1.027-.54-.336-.63.448-.41.071-.65-.793-1.21.02-1.37-1.251-1.18-3.092.36-1.445-.75.071-1.1.448-.51-.142-1.089 2.024-1.25-.916-.83-.651.19-.529-3.55-1.749.81-.295-.62-.977.21-1.078-.85.214-.52-.885-.6.366-.01-.153-.83.611-.92-1.455-1.69-.478-6.27.854-.28.072-.45.956-.22v-.96l-.356-.51.722-.27-.254-.719-1.119-.12-.804-.83.702-1.15-.173-1.38.366-.5.885-.08-.051-.67-1.373.11-.559-.94-1.16.12.041-4.74-.641.24-2.156-.31-.377.42-.712-.04-.915-.45-1.465.03-.142-.46-1.129-.04.803-1.48.834.45-.01-1.04 1.587-.52-1.628-3.26.295-.32.661-4.219-1.19-.21-.254 1.239-1.872-.09-2.532-1.089-.529-.48.315-.32-.336-.42 1.455-.91-.956-1.12-.621.13-.641-1.35-.172-.47 1.576-.72-.417-.54 2.004-.75-.346-.94-2.197-.47-.193-.92.661-3.92-.671-.74.02-1.45-1.119.01.203-2.11-.437-.4.387-1.4 1.241.09 1.291-.959.143-.46-1.445-.21.509-1.13 1.709.14-.377-1.23.184-.88 1.007-.07.101-.58.712-.22-.468-1.01 2.106-.57-.61-.27-.478-1.66-.417-.3.559-.29-.122-.41-.793-.09-.54.34-.783-1.17.814-1.85.753.74 1.271-1.57.641-.1.01-.39-1.515-1.06.376-1.25 1.8-.01.621-.58-2.035-2.76.814-1.199 2.309-.93.112 1.05 1.526-1.04-.244-.58 1.058-.5.02-.4.763-.49-1.048-2.24-.285-3.09 3.184.41 1.455-.82.569.18.061.6zM67.421 93.669l1.78-.11 1.282 2.32.641.18.356.92 1.332.92 2.411.43.478-1.21 1.313.01.478-.55 1.017 1.07-.346.65.224.79 1.424.979.65.02 1.486-.81.59.2.946 1.73-.061 1.39.335.3.702-.17.112-.49.356.19-.254.3.336 1.36-.367.26.316.22-.092 2.35 1.994.17v.36l2.33 1.38-.286 1.71 2.187.28.499-.38 2.38-.27.305-.41.661.06-.02.7 1.72.01-.204-1.72.396-.57 2.655 2.43 1.129.04.316.75-.112 1.34 1.892.76.437.21 1.444-.43 1.343.62-.051 1.72h-.498l-.488.709.162.55-.447.28.081.88 1.567 1.12-.468.69-.194 1.96 3.957 5.59 1.272.99 1.76 1.03.335.84-.254.98.753.48-1.313.43-.376 1.08.529.79-.641 1.61-2.522.65-.367 1.379-.976-.53-.427.11v.54l-.57.09-1.749-.77-.285.32-.773-.05-.468.89-1.821-.56.275 2.09-.519.85 1.414 1.43-1.699 1.71-.773-1.05-.824-.29-.743 2.01-.396 2.95-.753.24-.498 1.03-.6-.07.142.4-.956-.31-.366.33.203.52-1.13-.56-.375.54-.834.01.08.9-.406-.59-1.058.39-.183.67-2.614.12.386 1.21-.173 2.67-.783.12-1.515-.66-.6.39-1.445-.82-.814-1.02-1.047.63-.814-.08-.366-.6.498-.32-.712-.67-.905-.19.142.35-.417-.14-.03.31-1.048.65.346 1.57-1.15.09-.366.54.468 1.13-.214 1.399-.976.17-.407.6.62 1.91 1.608.74-1.455 1.28.244.96-.783 1.26-.6-.5-.63.59-1.374-.34-.04.74.09.95 1.17-.21.926.41-.407 1.43-.457.42.335.56 1.282.29 2.238-.15-.397.77.234.36-.458.83.02.96-.62.26-1.15-.98-.823.13-2.685.86-1.658 1.28-.825-.22-.345.53-.845-.28-.254.85-.519-.08-.366-.57-2.736-.4-1.414 1.6-.336-.65-1.322-.52-2.055 1.43-.285.54-2.166-.68-1.373.4-.59-.67-.285.15-.529-.38-1.22 1.36-.418-.27-.691.37-.723 3.149-.67.5-.51-.32-.355.28-.173.69-1.842 1.98.712 1.08-.885 2.19.357.94 1.108.39.143.38-1.16.53-.05 1-.652 1.17.834 2.07-1.23 2.14.203.72-1.424-.29-1.272.71-1.637-.49-1.577-.73-.519-1.36-1.261.81-1.383-1.1-.723.65-2.156.08-1.75-3.69-.59-.12-.05-.81-1.18-.65-1.353.82-.61-.21-.763.28-.6.77-.438-.16-.509-.63-.274-1.59-1.16-.46-1.312-1.09-.712-1.68.03-.85.825-.62.691-.01-.56-1.65 1.232-.84-1.953-1.08-.499-.03.275-.64-.326-.759.845-1.54-1.079-.3-.224-.62-.762.13-.52-.94-.732-.44-.132-.99-1.281.24-.448-.29.57-1.23-.723.01-.539.92-.396-.54.905-1.82.448-.26-.936-.27-.163-.52.224-.57.63-.31.387-3.56-.163-2.34-1.678-6.839-1.21-.4-.753-1.49.793-.48 1.14-2.3 2.95-3.78.162-1.08.529-.76.712-.2.732-.75.895-1.49.794-.62.824-1.66 1.454-1.18.316-1.75.935-.26 4.059-5.869 3.397-3.96.163-.98.834-.34 1.302-1.59-.03-.91.508.04.753-.57 5.38-5.5 3.775-2.559 1.882-2.77 1.657-.66.51-2.19.884-.77 2.767-.91 4.618-.51 2.004.12.244-1.23.997-.57 1.739-5.12.519-3.35-.265-.72.194-.95-.377-.01-.234-.46.305-.91z"/><path d="M325.309 304.318l2.563.04 3.509-.5 1.689 1.01 1.8.48-.386.89-.814.04-.55.92-1.759-.46-1.109.25-.814.839-.152.8.518.59h-.244l-2.655-2.789-2.593-2.1-1.485-2.12.885 1.22 1.597.89zm-43.923-80.076l2.269-1.58 4.252.36.284.61.804-.99.987 1.11 2.258-.03.162-.53 1.069-.28-.255-.69 2.431-.59.153.48 2.217-.19.316 1.17.722-.1.03-1.04.428.42.651-.05.305 1.14 1.027-.29.468.36.885-.37.244-.91 1.943-.13-.356-1.78 2.472-.49.132.48 2.889-.43.081.45.773.14.956 1.27-.417.7.682.56.692-.1.549 2.72 2.899-.93.183 1.12 1.404-.31.579-.63.407 1.189.865-.189-.02-.43 2.329-.43.437 2.049-.691.27-.234.92.579-.04.133.72.508-.32.061-.46 1.384-.07-.265-1.97.519-.079.325.449.54-.27.05-1.179 1.679-.31.305.98 1.505-.2.356 1.299 2.493-.44.457 3-1.709.42-.061.47.723 4.09.874-.74.224.2 2.065-.4.346 2.46.834-.17.234 2.71-.926.05-.061 1.04.478.96-1.403.31.295 1.64 4.384-.58-.061-.63 3.173-.42.214.59.529-.04.458 1.14.712-.08.203 1.45.498-.07.326.49.549-.7.204.53 2.309-.46-.255-1.57.611-.15-.021-1.01 2.157-.53 2.197 1.73 1.922-.61.234.63.539-.03 7.283-1.44.824-1.58-.356-.23-.152-.81.702-.12-.275-1.64-.702.06-.112-.73 3.154-.57-.336-.98-1.312.26-.153-1.78 3.408-.57.417.92 3.051-.51-.203-1.72-.549-.63h1.617l-.051-.29.926-.21.356.3 1.332-.71.427 3.07-.356.64.448 1.98-.478.19.417.88.448.21 2.125-.39.184 1.7-.529.22.396 2.26-.803.23.325 2.25-.58.27.214.95.356.06.142 1.13-3.387.86.824 5.199-1.22 1.24 4.557-.25-.051.97.051 2.68 1.546-.92.142.3.163 1.13-.773.41.447 4.35-2.268.34-.142-3.02-.54.21.031.91-.763.24.143 2.94.172.38 2.869-.45.427 2.77-1.109.49.061 2.059.458-.02.692.55 1.454 1.63-1.678.25-.051.77.448.39-.458.3-.57-.09-.518-.87-1.109.16-.02.97-1.007.63.05.45-.742-.12-.387-.79-.071.32h-1.546l-.295 1.26-1.414 1.92.855 2.32 4.668 2.81-1.566 2.41-2.472-1.34-.692.61.641 2.03.936-.1.153.77-1.984.25.122.8-3.051.68.101.869.438.19 2.126-.359.163.859.874-.15.092.56-4.669.83-.041.37-1.373.16-.142.52-.367-.33-2.054.32-.265-1.95-3.631.26-.417-.91-.946.15-.092-.62-.376.051.275 1.569-.448.1.214 1.25-2.126.27-.234-1.22-3.337.54.255 1.72-.926.09-4.242-2.65.845 1.44-1.262.63.214 1.72-1.648.36-.193.54-1.74.29-.315-.27-1.678.41.183.81.458-.07.325 2.19-2.309.37.397.55-1.445.08-.173.47-2.644-.21-.783 1.25-3.011 1.2-.723-.69-1.515-.2-2.096-.88-1.942-.04-1.16.71-.977 1.57-1.108-.9-1.109-.37-2.248-.14-.498.44-1.353-.15-.57 1.1-2.116-.58-1.922.07-1.912-.82.406-.99-.447-.24.692-.39-.733-.48.265-1.84-1.241-1.61.976-1.41-.844-1.52.142-1.64-.935-.63-.662.06-.701-1.919-1.048-.77-.661-.05-.763-3.01 2.421-.64.03-.49 1.567-.27.264.48 3.52-.58-.499-1.52 1.211-.27.905.18.051-1.08.366-.12-.315-1.6.274-.13-1.149-4.38-.661.11-.224-.43-1.414.28-.173.79-2.96.02-.03-1.66.325-.06.173.63 1.139-.19-.376-1.83 1.027-.24-.142-2.12-5.259 1.33-.407-1.5-.692.09.316-1.07-3.072.61-.509-2.109-.549.1-.203-.78 1.261-.63-.285-.67-.478.04-.153-.43-.264-1.62.692-.16-.285-1.14-1.262.2-.05-1.1.579-.12-.437-2.85 1.048-.23-.366-1.74-1.374.22-.173-.53-1.831.05-.752-.6-.112-.49-.092-.46 1.17-.25-.173-1.92.651-.69-.142-.66-2.757.53.377 1.47-1.536.41h-.55l.153-1.65-1.567.43-.223-.49-4.73.86-.265-1.16-1.526.27-1.098-5.929 1.2-.4-.305-1.27.722-.1-.02-.58-.275-.03-.203-1.01-3.174.42-1.058-5.52.275-.31-.834-1.13-1.261-.73.132-.69-.763-1.71 1.037-.53-.742-1.6-.916-.56.794-.16.62-.91 1.109.18.173-.58 1.21.03-.376-.21.112-.31.458.38.895-.22v-.489l-1.455-.19-.346-1.53z"/><path d="M263.433 221.002l.458.48 1.759-.69 1.465 1.43 1.434-2.4 1.475.78.549-.68.682 1.13-.142 1.2.895.03.803 1.46 1.77.45.61-.58 1.842.03 2.217.72.814-.33 1.312.21.356 1.53 1.455.19v.49l-.896.22-.457-.38-.112.31.376.21-1.21-.03-.173.58-1.109-.18-.62.91-.794.16.916.56.742 1.6-1.037.53.763 1.71-.133.69 1.262.73.834 1.13-.275.31 1.058 5.519 3.174-.42.203 1.01.275.03.02.58-.722.1.305 1.27-1.2.4 1.098 5.93 1.526-.27.264 1.16 4.73-.86.224.49 1.567-.43-.153 1.65h.549l1.536-.41-.376-1.47 2.757-.53.142.66-.651.69.173 1.92-1.17.25.092.46.112.49.752.6 1.831-.05.173.53 1.373-.22.367 1.739-1.048.23.437 2.85-.58.12.051 1.1 1.262-.2.284 1.14-.691.16.264 1.62.153.43.478-.04.285.67-1.262.63.204.78.549-.1.509 2.11 3.072-.61-.316 1.07.692-.09.407 1.5 5.259-1.33.142 2.12-1.027.24.376 1.83-1.139.19-.173-.63-.326.06.031 1.66 2.96-.02.173-.79 1.414-.28.224.43.661-.11 1.149 4.379-.275.13.316 1.6-.366.12-.051 1.08-.906-.18-1.21.27.498 1.52-3.519.58-.265-.48-1.566.27-.031.49-2.42.64.762 3.01.662.05 1.047.77.702 1.92.661-.06.936.63-.142 1.64.844 1.52-.976 1.41 1.241 1.61-.265 1.839.732.48-.691.39.447.24-.407.99-5.574 1.36-6.144 2.32-1.485-.3-1.495.66-.783 1.74.285.79.518.33.184-.24.518 2.36-.763 3.3-1.098.76-1.282 1.75-2.288 4.669-2.086 3.53-1.556 1.73-1.007 2.04-3.581 3.68-5.462 6.81-17.465 13.829-2.655 3.01-.386 1.45-.519-.14-.071.33 1.414 1.36.467-.39-.264-.41.315-.47.55.5-.011.63.295-.52 1.394-.21.875.47.264-.34.204.21-.458.76.356 1.03-.529 1.239.529 3.51-.875 2.93.183 1.81-.854.09-.112.69-1.038.21-.305-.29-.58-1.78.621-.93-.315-1.88-.468-1.28-1.933-2.37-1.709-1.15-2.431-.66-1.749-.979-2.574.3-.865-.56-1.302 1.03-1.708-.28-.672.629-1.119.33-.295.64-.925.55-2.33.72-3.295 1.94-.784.1-.59.91.153 1.01-.417.54-.915-.33-1.425-1.44-.986-.04-.855-.86-.773.03-.569.56.813.59-.152.55-1.679.82.407.85.956.6.031.47-2.533.84-2.706-.9-2.644-.25-7.466-3.54-2.157-3.6-.091-2.339-2.309-.94 1.119-1.92 2.125-1.93 2.767 1.04 1.353-.26-.183.65.366 1.43 2.808-.68-.784-3.39 1.943-.45-.986-4.12-1.252-.02 1.15-2.42.925-.93 1.719.23.163-.58-.366-1.39 1.333.3 2.919-.76-.315-1.73 2.909-.82-.936-4.449.224-.59-.214-.98.773-.17-.193-.48 7.049-1.56.895-2.17-1.912-2.37 3.916-4.8-3.855-3.14 1.495-3.509-2.217-6.17 3.275-.24-.071-.8-1.16.02-.061-.47 1.455-.16.285-.68.895-.33 3.316-.14.061-1.41 2.472-.72.132 2.86.335.02.214.71-1.21 1.06.854 2.29-1.322 1.57 1.149.39.926-.86-.051-.54 1.109-.57.305.41.61-.27-.61-1.42.478-.35-.315-.74.935-.44-.152-1.08.518-.36 1.689 3.83-.305-1.06 2.207-2.35 1.77 1.75-.783.96.814.76 1.983.35.549 2.72.743-.13.173.45 2.4-.34-.427-3.58.478-.27.397.71 1.617-.36.295-.5-.559-1.1.488-.26 1.221.81.498 1.99 1.129.85-.488.57 2.645 1.58-.051-.99 1.79-1.4 1.678.91.438-.37.824.3 1.322-.74 1.099.89 2.37-1.55-.163-.81-.773.91-.305-.72-.366-.27-.306.17-.325-.61.051.68-.519-.44-.153.55-.712-.18.255-.74-1.404.02.061-.54-1.068-.34.976-.45-.844-.1-.285-.38.377-.82-.489.08.021-.75-.173.5-.377-.16-.345.53h-.316l.255-.92-.753.76.122-.41-.519.01-.01-.5-.681-.08.203-.38-.57-.29.194-.26-.448-.66-.437.02 2.543-.62-.458-.48-.02-.66.854-.89-.407-2.26.895-2.13-.02-3.079-1.302-2.64.875-.59.549.05-.336-.79-.722-.4-1.424 1.01-.722-1.48.264-.2-.285-1.54-1.21.2-.203.42-3.093.62-1.088-3.45-.336.34-2.146.11-.326-1.62-2.268.63-.529-.82 1.343-.25.193-3.7.855-.36-.509-2.67-2.258.19.051.91-.58.15-.519-1.939-.641.14-.061-.63 2.94-.72-1.007-5.64 1.617-.41-.895-5.62-2.339.39-.631.4.01.74.336.17-.478.29.01 1.19-1.841.84-.214-.79-.875.23-.498-2.2.478-.37-.275-1.38-1.8.49-.682-3.83-1.546.67-.874.95-.173-2.25-1.78 1.8-.346-1.27.539-.62-.143-.28-.915.72-.224-.26 1.007-.84.041-1.919-.173-.24-1.119.499-1.282-2.319 2.381-.87.061-.59 1.088-1.38-.234-.79.763-.7-.895.04.488-.93-.02-1.12.366-.1-.844-1.85.315-.91 1.149-.7.875-2.53-.885-.37-.925.72-.712-1 .01-.54.803-1.39 1.658-1.23.183-.58-2.085.2.021-.48-.184.57h-.335l-.926-5.419-1.648-.05.133.58-1.333.02-.275.26.407.21.082.61-.682-.47.244 1.08-.732.28-1.292-.15-2.136-1.73-1.475 1.02-1.505-2.03.01-.67-1.404-1.09.417-1.31-.102-.58-.498-.11.509-.38.701.59.092-.62 1.973-.64.621-3.12 1.342.58.356-.33.58.12.427 1.64.519-.33-.234-.54.631-.83-.153-1.16.509-.5-.132-.4.386-.14 2.187 2.03.438-.13.366.32-.499.47 1.353-.08.743.38.356-.42.814.08.498-.34.315.88-.641.1-.152.36-1.16.12.529.78 1.373-.43.255.86.549.29 1.068.13 1.292-.47.102.35.508-.29.143.22.508-.25-.132-.41.376-.56 2.564-.45.345.76.794.31 2.37.22.132-.28.529.03-.213-.5.478-.23.173-.75 1.302.42-.062.61.916.18.142-.34-.407-.24.458-.14.234-2.15-.692-1.46.916.32 1.363-.77 1.719.02.224-.27zm113.172-119.805l1.19.16.509.61 1.902-.96.621.78 1.017.26.569-.3.143-1.54 1.241-.75.773.94.549.16.122.59 1.872.04.102 1.19 1.21-.05.275.86.478.36.03-.48.967-.37.508.16.193.62.601-1.04.813.89.509-.5 1.139-.28 4.954 1.36.783.58.692-.05 1.159-.96 1.801-.7.193-.4-.285-.38-.905-.11-.153-.43 2.147-.9h.63l.834.9 1.313-1.66 2.593 1.93-.132.62 1.292-.87 1.383.54-.61.82.468.44.651-.54.061-.95 1.831-.87.997.16.61-.61.987.82.376 4.46 4.394 3.57-.295.46 1.079 1.099-.356 1.04.427.43 1.292 1.11 2.115.28.255 1.98.376.27.081-.4.672.15.732 1.01-.417 1.03-1.282 1.4.509.54-.244.81.549 1.15.926.68.559-.35 1.434.82.713-.34.305.39.498-.58.295.18-.132.33.722.05.01-1.96 1.129-.68.539.23-.244.61 1.974-.48.122-.29 1.149.08.397-.35 3.204.63-.346 1.09.102 1.53 1.007 1.35-3.652 4.74.936 2.599.325.31.712-.19.926 1.83.977.79.6-.12.752.84.804-.74.753.02.498 1.4 1.902.3.661-.28 2.533 1.46.173 1.34-.702.26.336.81-.061 1.85.6.65.936.11.102.76-.509.32.458.22-.448.8.875.48 2.187.24.722.82 2.777-.41-.285.75.692.91 1.414 3.57-2.563.549-.224.39.783.17.041 1.26 1.922.67-.112 1.54-5.025-.95-.691 2.39 1.597.54-.448 2.23.926.38-3.255 4.01.274 1.27-.417.93-1.424-.85.397-.31-.244-.19-2.879.33-.956-.37-1.322.08-.55-.85-1.312-.65-.407.31-1.495 3.92 1.272 5.089-.275.13-.01-.56-2.045-1.819-.742.53-.417 1.329-.651.41-1.119-.6.101-.37.743.07.315-.479-1.22-.37-.153-.33-1.292.19.163.38-.468.38-.936-.41-.691.339-.021 1.53-.834-.14-1.149.72-.539-.14-.529.72-.468.09-.417-.51-.794.21-.59.66-.671-.05.051.97-.58-.18-.366.75.254.99-.742.38-1.221-.8-.651.48-.742-.56-.407.34-2.086-1.48.479 2.06-1.791 1.11-.376.92-.905.8.905.86-1.363 2.08-.397 2.32.265.63.925.66-.03.81.427.06-.02.54-.794.08-.051.53.794.46-1.79.15.122 1.81.895-.35.518.38-.966.939.173 1.07-.732 1.18.051-.77-.336-.26-1.2-.02-.712-.69-1.068-.29-.835-.839-.691.19-.834-.34-.346-.56.193-1.12-.224-.41-1.78-.21-1.129-.84-.58-1.13-1.2.02-1.861-.75-1.272-1.18-2.695-1.8-1.903-.42-1.597.28-1.027-.85-.661-1.13-.956.25-.082.61-1.19 1 .407.22-.62.93-.956.11.213.32-.834-.04-.376-.93-2.167.77.102-1.86-.234-.06-1.323-.16-.233.29-.021-.32-.61.01-.193 1.48-1.699-1.3-1.109.17-.193-.38.519-.19-1.018-2.18 1.089-1.16-.519-1.12.163-.74-.621-.52.122-.33-.854-.17-.57-.51.824-.28.438-1.1-.926-.84-.315.14-.102-.79-.671-.81-.234.04.315 1.04.02 3.36-1.536.12-.539-.54-.885.16-.132-1.67-.386-.6.295-.68-1.465-2.259-2.625-.11-.64-.83-.773-.09-.346-.53.132-1.16-.488-.44-1.496.64-1.373-.15-1.159-.55-1.384-.14-1.831.92-.64-.95-.926-.38-2.126.48-.875-.68-.641.41-.701-1.26-.936-.36-.55-.7-1.403-.45-1.374-1.13.407-.66-.498-.03-.081-.3.569-.52 1.048-2.59 1.098 1.35 1.923.22 2.004 1.12 2.95.09-.092-1.09-.783-.6-.773.03-.468-.81.132-1.27-1.007-.66.732-.59.092-2.6 1.17-.04 1.353-1.33-.051-2.419.264-.27-2.014-1.43.539-.56-.518-1.67.366-.65-.865-.2-.712-.97-3.041-1.07-.041-2.59-.59-.99-1.363-.19-.448-1.63-1.82.47-.478-1.38-2.136-2.7.579-.53.397.49 1.119-.68-.702-.8.163-1.16.346-.14-.407-.36.295-1.3-1.607-1.029-.499-2.75-.691-.11.111-.69-.61-.48-.346.96-.366.05-1.892-2.32.529-.81-.692-.72 1.791-.42-.194-1.28-4.231-1.21-.468-1.1-1.719-1.34.427-.62-.275-.22-.915-1.02.529-1.77-.203-.23 1.444-.95-.376-.59.742-1.05-.244-.61 2.492-.549.356.409.346-.289.539.399.376-.809-.356-.58 1.272-.35.122-.86 1.007-.45-.254-.64.254-.42 1.495-.14.153.7.793.39.265-.24 1.444.68 1.648-.03-.214 1.56 1.353 1.309 1.272-.759 2.38.17.112-.6 1.342-.18-.05.69h2.329l.122.28.224-.36.488.529.214-.249.722.339.325-.449-.468-.29.123-.48 1.617-.16 2.736-1.84-.122-.81.966-.31-.264-.36.478-.43.498.08.214-.85.376-.15-.193-.65 1.383.05.367-1.55.661-.07.854-.91zM127.364 25.56l3.601.52 1.78-.92.794-.06 1.251.39.152.56 1.496.25 1.607 1.84.549-.1.061.73.712-.14.387.31 1.078-.54 2.37.17.539.45 2.085-.13.956-.66.102 2.21.844-.12.733 1.1.874.22.112.75 2.452.09.427-.85 1.16-.39.122-.47.763.3 2.624-.08.62.68 1.435.51.295.45-.194.98 1.201.58.213.52 1.831-.49 1.099.93 1.271.07 1.068.67 1.587-1.81 7.202-.28.234 5.95 1.414-.15.824.69-.987 1.75-.031 1.04 3.337-.14.691-.64 1.058.54 1.18.14.051-.44.855-.44.396.7.641-.44.203.31-.335.77.864.49.794-1.1-.509.03-.122-1.21.315-.38.682.75.437-.75 2.442 1.7.854-.59 1.2.22.377.4 1.058.02.203.79-.315 1.37-1.404 1.33-.081 1.06-.438.19.214 1.01-.682-.22-.905 1.08-1.526.23.051 2.64h.651l.488 1.49-1.068.01-.417-.75-1.434-.93.153-1.07-.967.03-.457 4.08.925.43.021 1.41-.906 1.34-1.851.38.773 2.449-.509.51.814.43.082.54-1.974 1.88-1.444 2.52.152.5-.498.25.041 2.41-1.465.98-.204 1.11.377.82-1.618.05-.172.48-1.842.14.092 1.19-.926.43 1.353 2.95.021.49-.59.23-.122.73 1.322 1.15-.336.599.275.22-.275.64.193.66-.62.96.315.62-.284 1.56.315.31-.021 1.19.957.4-.234.92.396 1.29-1.078 2.49-1.139.26-.305.44.356.33-.061.9-.712.79 1.353.99-.458.97.508 1.03-1.22.25-2.187.1-.01-1.42-.509-.34-1.495.92-.092 1.26-1.79-.39-.315 1.059-.712.29-.244.57-1.689-.44-1.078-.73-1.567 1.94-.702-.73-.325.1-.254.93-1.17.03-.275.68-.315.01-.132 1.01.936-.29-.123.42-1.556.34.143-.95-.346.1-.275 1.04.326.71-.682-.1-.193 1.59-.621-.16-.407 1.61-.732-.14-.427 1.45-1.597-.17-.509 1.48-1.159.5.183.67-.488.01.02.49-.631-.14-.132.69-.529.41.224.449-.743.05.041.72.386.2-3.733-.09-.539.67-.671.06-1.261 1.11-.662.78-.05.94-.57.86-1.933.38-.386-.36-1.394-.93.417-.99-.223-.76 1.088.06.163-1.9-.967.1-1.058 1.86-3.478-1.44-1.76 1.38-.234-.47-1.088-.37-.468-.58-.977.01-1.851 1.98-.671 1.52-1.241.48-.855-.2-1.068.35-1.282-.42-.203.7-1.241-.23-1.983 1.38-1.781-1.18-.752 1.32-1.852-.32.031-.44-.905-.11-.967.81.061 1.2.234.51.967.18.142.63-1.241.4.122.64-.63.56-.245.99-2.298.38-.519 2.19-1.272-.99-3.957-5.59.194-1.96.468-.69-1.567-1.12-.081-.88.447-.28-.162-.55.488-.71h.498l.051-1.72-1.343-.619-1.444.429-.437-.21-.377-.669.295-.58.621.02-.031-.43 1.353-.62-.6-.81-.193-1.26.834-.52.386 1 .641-.12.427-.92-.498-.83-.834-.01-.082-1.2-.386-.63-.702.19.427-1.34-2.177-1.23 2.208.34.325-1.9-.254-.59-1.027-.79.071-1.05 2.258-.04.203.43 1.475.18.346.36 1.648-.17.478-1.16.478-.36-.274-.93-.733.32.295-1.09-.641-1.78.784.01.59.71.864.08.153.33 1.597-.15-1.129-1.12-.112-.6-.377.08.356-.53.458.07.499-.79-.326-1.11.712.98 2.126.41-.122-.43 1.75-.79 2.553-.91.437.25-.122-1.02 1.21.05 2.055-.6.02 1.1 1.089 1.17-.488.58 1.078.12 1.17-.38.661.45.997 2.24.417.15.315-.38-.651-.85 1.566-2.31.255-1.05-.224-1.81.519-1.27.02-1.65.753-1.77 3.855.6.6-1.17-.03-.509-.865-.79-.712-.09.386-3.71-1.352-1.07 1.159-.45 2.848-.27.122-1.57.733-.26-.59-2.57-2.421-1.59-1.434.18-1.282-.37.264-1.02-.457-.77.813-.39 1.18.16.011-.9.478.05.142.44 1.465-.63.01-.58.61-.01-.274-1.53-2.136-2.32-1.882-.419-.041-.91-.437-.56.223-.69-.884-.7-.621-.04-.264-1.16-1.201-.55-.824-.87.092-1.52-.265-.22.712-.3-.417-.76-.895.68-.569-.21-.326.22-.793-.42.132-.99-1.119.01-.407.64.346.47-.559-.18-.367.36.061-.86-.315.03-.234-.71-1.505-1.11.01-3.04-.763.04.132-.64-.773-.02.163-.68-1.77.19-.122-.57 1.516-.57-.011-.49-.935-.42.386-.88.6-.3.244-1.21-.732-1.18-.661.08-.305-1.069-.743.44v-.84l1.282-.11-.112.37.376.09.397-1.08.59.18 1.251-2.12.356-1.56.529-.51-.091-.62.661-1.35-.346-.89-.427.37-.346-.16.356-.83-1.007-1.09.244-.83.468-.32-.478-1.24.824-1.39 1.027-.62.427-.68-1.2-.43-1.353.07-1.19-.78-.193-.52 4.048.46 1.76-.45.712.14-.448-1.41.428-.12 1.505.39-.132.77.325.27z"/><path d="M403.073 1.502l.6 1.51-.468.76 1.119.73 1.068.33.193-.39.336.2.874 1.27-.172 1.87.62.13.112.6 1.302.27.366 1.33 1.455.2.346 1.02-.133.88 1.953 1.39-.183 1.2-.732.72.325.8-1.251 1.129.611.05.65 1.57-.223.79.203 1.09 1.373.44-.234.95.428.77 1.546-.05.6 1.54.681.65-.173.49 1.333.52-.01 1.18-.346.44.539.11.509-.5h.681l1.038 1.03 1.027.41.356.78.6.15.987.98-.254 2.03.976 1.26.143 1.19-.641 1.16-1.963.559-1.933-.42-.631.83-1.892.43-.793-.29-.346.45-1.434.45-1.129-.15-1.557 1.18.265.32.498-.12.224.7.651.05.01.42 1.221-.13.549 2.53 1.048-.14.142 1.32.672-.52.681 1.36.081 1.46 1.262.09.468.71-.092.41-.62.01.101 1.64-.763.35-.752.94.244.91-.295.48-.753.14.234.53-.376.14.274.98.784-.06.681.74.682-.1-.112.64.559-.08 1.048.55.153.64-.875 1.189-1.048-.08.224.72-.214.61-.264-.05-.163.64-.915.35.376.83-.682.27-.101.45 2.736 1.46.742-.08 1.842-1.79 1.739.85.386-.2 1.384.88.854.11.326-.48.661.01 1.353.93.773-1.08 2.044.38.285 2.71 1.648 1.27.448-.45 1.515.35.448-.54.702.69.763.11.111-.69.926-.86.499.35.762-.24.428-.54.915.11.183-.68 1.251-.91.997.1.977.67.152.8.743-.62.346-.81 1.759.05.906.39-.661 1.63.203 1.2-.376.4.478.56.122 1.04 1.017.53-.376.78.488.62-.102.49-.61-.11-.244.42.529-.04.854 1.66.834.34 1.282-1.02.722.41.081-.43 1.068-.39.031-.28 1.444.81.956-.13.367.62.651.25.122 1.24-.824.36-.438.63-1.78-.42 1.119 2.08-.814 1.749.194.47 1.17.15.03.36.743.1.335.48.102.65-.763.37.57.81-.509.53.743.44.498.9-.142 2.42 1.281.98.885-.02.377.31-.57 1.69.153.41-.743.58.102.41.386.08-.295.79.305.73.875.7-.264 1.15-.855-.56-2.207.76-.122.65 1.058 1.96-1.099 1.24 1.272.959.244 1.63 1.373 2.21 2.93 1.81.264-.52.529.73-.03 3.36.996.57-.305.46.783.749 1.252.02-.184.36.804.2-.183.84-.509.15-.142.58h-.61l-.489-.35.143-.26-1.221-.29-.712.53-1.912.13.6.78-.356.58-.682-.44-.325.3-1.241-1.12-.631-.06-.559-.9-.641.71-.915.02.061 1.25-1.75-1.25-1.139 1.56 1.119.75-.916.61-1.251-.06-.295 1.56-.661-.02-.153.43-1.291-.6-.184.48-1.424-.7-1.291 1.36-1.455.62.051.76-.977 1.32-.447-.1-.041-.63-.712-.2-.122.34-.224-.31-1.281-.12.376 1.35-1.058.36-3.204-.63-.397.35-1.149-.08-.122.29-1.974.48.244-.61-.539-.23-1.129.68-.01 1.96-.722-.05.132-.33-.295-.18-.498.58-.305-.39-.712.34-1.435-.82-.559.35-.926-.68-.549-1.15.244-.81-.509-.54 1.282-1.4.417-1.03-.732-1.01-.672-.15-.081.4-.376-.27-.255-1.98-2.115-.28-1.292-1.11-.427-.43.356-1.04-1.079-1.1.295-.459-4.394-3.57-.376-4.46-.987-.82-.61.61-.997-.16-1.831.87-.061.95-.651.54-.468-.44.61-.82-1.383-.54-1.292.87.132-.62-2.593-1.93-1.313 1.66-.834-.9h-.63l-2.147.9.153.43.905.11.285.38-.193.4-1.801.7-1.159.96-.692.05-.783-.58-4.954-1.36-1.139.28-.509.5-.813-.89-.601 1.04-.193-.62-.508-.16-.967.37-.03.48-.478-.36-.275-.86-1.21.05-.102-1.19-1.872-.04-.122-.59-.549-.16-.773-.94-1.241.75-.143 1.54-.569.3-1.017-.26-.621-.78-1.902.96-.509-.61-1.19-.16-.63-1.09 1.668-2.03.112-.64.722-.19-.631-.39.611-1.86-.163-.48 1.088-.56.102-2.01-.468-.9 2.594-.59.865-.57-.234-.28-.611.07-.244-.55h-.631l-1.21-2.33.498-.42-.427-1.45.987-1.16-.519-.22.376-.81-.315-1.05.417-.4.844.01-.366-1.599.143-1.99-1.343.07-.417.32-.356-.19-.753-2.65-1.353.78-.01.51-1.22-.51.559-1.76.865-.63-.794-.66.346-1.04-1.088-.21-.051-.5-2.675-.48-.143.26-.396-.35 1.627-2.75-1.027-.98.773-1.17-.285-.26.488-.54 1.272-.05.457-.31-.284-1.22 1.261-1.39-.326-.64.499-1.29-1.129-.25.63-.14-.447-.359.712-.22.417-.89-.488-1.22-.957.02.072-1.23-.682-1.45.977-.7.315.26-.651.72.814.43-.021.61.875.19.844-.13-.071-.71-.508-.04-.234-.47.813.07.204.51.468.03.152-.9-.61-.33.549-.72-.651-.6.244-1.6.458-.57-.152-.85.244-.65.407.18 1.475-.78-.245-1.7-.549-.3-.447-1.07.122-.42 1.597.05.539-.57-1.079-.19-1.23-1.39-.092-1.73-.824-.24.519-1.07-.275-3.169-1.088-1.21-.427-1.46-.397-.12.285-.42.458.05.732-1.57.793-.35-.274-.77-.377-.16-.183-1.61 1.862-1.16.03-1.07 1.516-.12-.061-.44.936-.06.386-.54 1.068.26.214-.67.641-.2.488.41.844-.02.794-2.62-1.374-1.65-1.047-.44.417-.89 1.332.04 1.15-1.08.488.02.814 1.28 1.424-.62 1.088-.03.02-2.709-.305.28-1.139-.39-.661.18.203-.5-.305-.7-.834-.29.081-.56-2.492-1.13-.468.28.509.24-.702-.1.183-.95.366-.11-.752-1.09-.112-.74.692-.69-.58-.68 1.169-.45.631-1.12-.285-.82.448-.06.356-.55-.041-.73.427-.48-.305-.36.529-.19-.396-.91.813-.3.478-1.25.662.2-.255-.65.621-.76.315.5 1.638.07.223.78-.315.46-.641.1-.437 1.06 2.655.67.234-.56-.651-.64 1.251.64.824-1.22 1.81-.32.723-.52.122-.48 1.088-.28.549.46 2.045-.8 1.638.41zM110.825 128.446l.519-2.19 2.298-.38.245-.99.63-.56-.122-.64 1.241-.4-.142-.63-.967-.18-.234-.51-.061-1.2.967-.81.905.11-.03.44 1.851.32.753-1.32 1.78 1.18 1.983-1.38 1.241.23.204-.699 1.281.419 1.068-.349.855.2 1.241-.48.671-1.52 1.851-1.98.977-.01.468.58 1.088.37.234.47 1.76-1.38 3.479 1.44 1.057-1.86.967-.1-.163 1.9-1.088-.06.223.76-.417.99 1.394.93-.295.299.224.84-.316.29.468.57.702-.03-.295.6 1.343 1.01v.58l-2.502.17.03 1.55.692.47.162.74h-.315l-.02.5-.651.03-.722.59 1.159.43-.356 1.25-1.088-.09-.041.47-.681.52-.112 1.02.661 1.88-1.068.85v.41l.895.44.061.34 1.394.71-.814 1.11 1.302 1.92.315 1.509.499.31.193 1.52-1.068.61-.773 1.23 1.698 1.08 1.048 1.17.112.63-.529.23-.03.8-.855-.06-.224.66-.905.78.488 1.11-.234.42.387 1.48-.519.18-.234-.53-.712.43-1.149 2.02 1.688 1.59.092 2.63 1.342 1.55-.437 1.169.773.46-.366.52.356.66-.56-.08-.01 1.11.773.73-.03.73.427.46-.366.16.203.53-.457-.09.518.74-.498.47.03.53-1.403-.02-.041 1.15-.417.09.163.43-.356.77.346.77-.163.51.732.53-.732.11.488 1.36-.264.27.244 1.52-.397 1.19.804.2-1.028.91.783 1.02-.325.58.58.84-.204.36-.6-.2-.468.349.204.41.976.24-1.21.57 1.037.96-.478.97.102.85h-.417l.397.73.539-.41.386.13-.6.67.295.88-.386 1.21.518.27.59 1.6.814.14-.356.44-.763-.25.326 1.18-.692-.6-.254.23.264.89.712.18-.213.77.518.39-.091.24-.661-.18.712.81-.448 1.41.326.58-.611.54.163.31.631-.1.04.79.997-.07-.163 1.16 1.292-.38-.661.84.997.12.153.33-1.028.36 1.078.6.641 1.299.539-.08-.752.93.976.53-.173.79.407-.01.376-1.06.906 1.14.905-.29.264.47-1.769.14-1.333 1.4-.946-.45-.824.39-1.149-1.58-2.452.75-.997-.16-.722-1.02-.112-2.62-.925-1.039-.56.33-.173.73 1.018 1.639.061.74-1.109.76-1.729-2.37.752-1.139-.213-1.74-.316-.35-.671.24-.356 1.65-1.577-.59-1.393 1.509-.895.25-1.14-.66-.854.13.153-1.269-1.75-2.32-.661-.38-.397.01-.549.62-.753 1.53-.803-1.5-2.899-.56-.295-.38 1.047-.89.041-.5-1.343-.52-.122-.45.916-.69.142-.48-1.414-.87-1.871-1.88-1.353-.17-1.74-1.3-.183-.43.682-.8-.56-.61-.62-.26-.254.21.376.91-.305.38-2.106-.81-.803.03.315 2.63-.387.1-.508-.67-.468-.07-.712.74-.448 1.15-.935-.09-.57-.9.152-.81.692-.46 1.811-.02.386-.7-.274-.3-.804.11-.498-.92-1.18-.28-.672 1.04h-.61l.702-1.77.183-2.53-.854.49-.682-.24.214.68-1.018.91.102 1.32-.386.27-.621-.21-.742-2.89.976-1-1.271-1.01.193-1.64-.844.81-2.482-1.529-1.77.909.03-.959-2.156-2.17.407-1.45 2.563.6-.05-.49-.54-.14.315-1.8-.762-.4-1.994-.2-1.516-1.72-.02-.86 2.482-2.87-2.92-1.43-.111-.87-.428-.44-.091-1.6 1.109-1.62-.784-.53-.346-1.18-.427-.3-.702.34-.549-.27-.529-2.609-1.404-3.1.173-2.67-.386-1.21 2.614-.12.183-.67 1.058-.39.407.59-.081-.9.834-.01.376-.54 1.129.56-.203-.52.366-.33.956.31-.143-.4.6.07.5-1.03.752-.24.397-2.95.742-2.01.824.29.773 1.05 1.699-1.71-1.414-1.43.519-.85-.275-2.089 1.821.56.468-.89.773.05.285-.32 1.749.77.57-.09v-.54l.427-.11.976.53.367-1.38 2.522-.65.641-1.61-.529-.79.377-1.08 1.312-.43-.753-.48.254-.98-.335-.84-1.76-1.03zm-92.667 49.688l.967.46.62-.59 1.79.41.509-.53 1.546 1.44.62-.04.489 1.22 1.485-.3.102-.55-.631-.63.224-.4 1.953 1.08-1.231.84.56 1.65-.692.01-.824.62-.03.85.711 1.68 1.313 1.09 1.16.46.274 1.59.508.63.438.16.6-.77.763-.28.61.21 1.353-.82 1.18.65.05.81.59.12 1.75 3.689 2.157-.08.722-.649 1.383 1.099 1.262-.81.518 1.36 1.577.73 1.638.49 1.271-.71 1.424.29 1.485.38.295.66.834.02.438.38.05.83 2.32 2.24 2.848.15.203 2.32 1.852 1.86 1.922-.38.661.88-.59 3.04.468.86 1.669.42.366-.29-.102-.47.722-1.62 1.312.24 1.058-.77.377.24.467-.69 1.058-.43.448.46-.326.54.051 1.23.519.58-.55.79.092.96.53.57-.143 1.24.427.42-.091.67 1.037.69-.02.359 2.207.45.427.44 1.099-1.569-.061-.7 1.81.37.59.51-.173.829.499.6 1.709.88.936 1.39 1.474 1.11.265.51-.244 1.36 1.414.58.671.77-.844.89.112.32-.468.42.305.54-.6.86.956 1.73.773.29.224.74 1.352.84.947 1.95-1.72 1.46-.406 2.639-.407.47-.956-.08-.52.47-2.593-.959-1.444.829-.397 1.36-1.109.59-.854-.57-1.516 1-.803-.05-.987.52-1.251-1.05-2.767.16-.59-1.13-1.13-.76-1.016.17-.814-.9-.865.4-.213-.36-.845.18-.376.76-2.044.27-.57.49-.64-.4-.835-1.899-1.526-.83-1.027-.1-2.828.63-1.78-1.21-1.688.24-1.262-.82-.254 1.2-.916 1.42-1.515-.43-.59-.68-.672.08-.518-.69-.804-.09-.895-.85-.62.01.122-.89-1.496-.4-.417-.46.377-.91-.763-.68-.082-.68-.447-.06-.265.42-1.861-.26-.417-1.02-.438-.12-.59.41-.366.86-.864.38.315.49-.62.58.213.63-.437.55.325.38-.6.81.254.19-.203.5-2.014.1-.62.7-1.486-1.07-.376.18-1.129-.56-.295.64.64.41.347 1.589-1.79.56-.265-.68-1.678-.649-.143-.39 1.007-1.1.54-2.12-.448.13-.234-1.09-.814-.46-.478-.88.061-.93-.326-.07-.335.58-.163-.79-.346.24-.64-.22.132.45-.295.2-.397-.54-.712-.02-2.279 1.43-2.756-.84.264-.49-.376-1.18.336-.12-.499-.81-.295.06-.376-.98.244-.97-1.343-.63-.58-.87.02-.57-.62-.13.143-.43-.499-.28-1.027.61-.844-.52-1.099.11-.692.73-1.434-2.22-.102-1.4-.803-.9.193-1.37-1.76-.38-.905-1.269.824-1.25-.966-.06-1.007-.78-2.126 1.18-.234-1.69.763-6.67.783-1.85 1.119-.96.529-.01.722-1.28 1.79-1.5 1.251-.39.763-2.52-.03-.41-.61-.48.091-.57 1.414-1.959-.387-1.78.224-1.32.488-.81.824-.47.367-1.81-.224-.43 1.709-2.43.152-.81.794-.38.67.15.855-.51-.284-.74.467-.42.061-2.5.682-.77.529-.22 1.312.85 1.078 1.63zm178.212-36.189l-.01-.449.498.209 1.221-.27.569-.619 1.038-.07.905-.48 3.967.44 1.251-.09 1.424-.88 2.33-.11.285.24.681-.59.061-.81.631.62 2.37.4 1.515.71.977-.52.559-1.71h1.608l.508.77 1.485-.57 1.475 2.3.997-.4.071-1.42.722-.2 1.913.49.986-.24.56.65.356-.08.702-2.4 1.047.04.112-.44 1.964-.51.467-1.35.509-.11.793.39-.071.73 2.014 1.38-.193 1.11.458-.05.274.89-.915 1.11.803.35-.01 1.09 1.323.939-.316 1.18-1.607 1.85.865.8.325 1.02 1.007.52-.712 1.12.031.82.915.32 3.001-.14.539.5.997-.41 2.238.17.976-.75.356.67h.743l.152-2 1.699.05.448.67.498-.76.854.43.916-1.94.651.37.163-.48 2.543.57.976.68-.824.79-.274 1.4 1.037 1.91.387 1.92.956.87.539-.12-.071.53-1.251.57.122.61 1.485 1.17-1.211 2.02-1.841.88-.163 1.08.631.51.153 1.489.549.74 1.149-.05 1.628.92-.275.8.143.75.376.05-.498.58.996.87.794-.14.814.59.345-.96.479-.24.294 1.42.479.26-.326.43-.722-.16.742 1.28-.437 2.83.275.57h.417l.04.59-1.79.52.204 1.29-1.241-.4-.794 2.17-.437-.69v.51l-.305.12 1.19 2.16 1.454-.6.031.94.346.21-1.506 2.269.397.4-.387.58 1.201 1.29.498-.28 1.048.53-.631.67.366.37.336 1.56.855.54.335 3.14 3.408 1.09-.163.34.783 1.19-.671.12-.376.82.417.31-.184.42.601.03 1.403 1.4.895.03-.071.81 1.048.33.112.75.549.03-.254 1.13-1.221.16-.112.73.367.62 1.607.48.529 2.759-.957-.03.479.29-.123.89-1.22.3.02.91-.641 1.16-2.949 1.23.203.46-2.777 2.34.834 1.08-.285.86-.671.15-.315 1.24-.407.42-.427-.1-.021.43.794.88-.072.81.387.7-.346.98.295.7-.285.34-1.719-.02-1.363.77-.915-.32.691 1.47-.223 2.149-.468.14.407.25-.133.33-.915-.17.061-.61-1.302-.42-.183.74-.478.24.213.49-.529-.02-.132.27-2.36-.21-.793-.31-.346-.76-2.563.45-.377.56.133.41-.509.24-.142-.22-.509.29-.112-.34-1.292.47-1.068-.13-.539-.29-.254-.86-1.373.43-.539-.78 1.159-.12.153-.36.651-.1-.316-.88-.498.34-.814-.08-.356.42-.742-.38-1.353.08.498-.46-.366-.329-.437.129-2.187-2.039-.387.14.122.4-.508.5.152 1.169-.63.82.223.54-.518.33-.428-1.64-.579-.12-.356.33-1.333-.57-.62 3.12-1.984.63-.081.62-.702-.59.325-1-.559-1.22-.905.04-.265-.42-1.2.37-.57-.57-2.238.53-.325-1.01-1.078.09-.072-.34-1.241-.36-.712-.799-.406.28-.428-.35-1.353 1.109-.793.12.509.66-.6.5-.184.9-.132 1.73.265.52-1.211-.38-1.485-2.47.651-1.07-.417-1.429-1.597-.11-1.048 1.919-1.007.2-.529-.36.072-1.119 1.393-.9.631-1.15.02-1.32-.539-.94-1.058.7-.671-.4-3.306 1.84-.671-.5-.011-1.85-.783-.48-.702-.04-.305.83-.864.65-.651-.08-.377-.81.468-2.31-.519-1-.824-.44-3.58-.35-1.943-1.57-.814-2.23-1.739-.74-1.241-1.4-1.465-.54-2.136.85-1.342-.1-1.74-.98.468-1.17-.285-.36-2.166 1.12-1.18-.64-.682-1.27.102-1.67-1.017-3.009-2.737-1.56.58-2.27.875-1.15-.559-1.55.406-.68-.712-.81-.03-.51.681-.08-.081-.36.732-1.07-.559-.85.214-.8v-.58l-.031-2.15-.844-1.28.081-1.77.753-.72.03-.839-.793-.99.203-.56-.64-.4 1.983-3.12 2.106-.09-.672-.91.743-.88-.285-.87.488-.41.997.43-.091-.95 1.525.99.712-.69-.132-1.13 1.282-.22.285-.34 1.973 1.44.6-.4.834.36.641-.64-.102-.37.845-.58-.051-1.26.498.97.773-.61.153.44.468-.07.732.51.987-.28.508-.51-.213-1.18-.224-.28-.631.07-.366-1.18.61-.51-.854-.97.458-.69.04-.94-.386-.69.234-.87-.58-1.15-.966-.36-.051-.579.549-.1-.01-.43-.539-.09-.061-.42.742-.3.58-1.85-.793.3-.743-.82-.427.17-.915-.42-.56.24-.214-.64.418-.57.274-.75.468.03.214-.52-1.597-.44.01-1.74.58-.32.651.8.61-.55.102-1.3-1.251-1.16.498-.96.59-.27.285-.91.407.25.071-.58-.031-1.01-1.515-1.1-.112-1.67 1.617-.22-.163-.41 1.048-1.06-.071-.92zM106.624 23.601l1.19-.42 2.624 1.76 2.269.45.295.41h2.217l.376-.58.855.47.61-.98 2.106.8.193.52 1.19.78 1.353-.07 1.2.43-.427.68-1.027.62-.824 1.39.478 1.24-.468.32-.244.83 1.007 1.09-.356.83.346.16.427-.37.346.89-.661 1.35.091.62-.529.51-.356 1.56-1.251 2.12-.59-.18-.397 1.08-.376-.09.112-.37-1.282.11v.84l.743-.44.305 1.07.661-.08.732 1.18-.244 1.21-.6.3-.386.88.935.42.011.49-1.516.57.122.57 1.77-.19-.163.68.773.02-.132.639.763-.04-.01 3.04 1.505 1.11.234.71.315-.03-.061.86.367-.36.559.18-.346-.47.407-.64 1.119-.01-.132.99.793.42.326-.22.569.21.895-.68.417.76-.712.3.265.22-.092 1.52.824.87 1.201.55.264 1.16.621.04.884.7-.223.69.437.56.041.91 1.882.42 2.136 2.32.274 1.53-.61.01-.01.58-1.465.63-.142-.44-.478-.05-.011.9-1.18-.16-.813.39.457.769-.264 1.02 1.282.37 1.434-.18 2.421 1.59.59 2.57-.733.26-.122 1.57-2.848.27-1.159.45 1.352 1.07-.386 3.71.712.09.865.79.03.51-.6 1.17-3.855-.6-.753 1.77-.02 1.65-.519 1.27.224 1.809-.255 1.05-1.566 2.31.651.85-.315.38-.417-.15-.997-2.24-.661-.45-1.17.38-1.078-.12.488-.58-1.089-1.17-.02-1.1-2.055.6-1.21-.05.122 1.02-.437-.25-2.553.91-1.75.79.122.43-2.126-.41-.712-.98.326 1.11-.499.79-.458-.07-.356.53.377-.08.112.6 1.129 1.12-1.597.15-.153-.33-.864-.08-.59-.71-.784-.01.641 1.78-.295 1.09.733-.32.274.93-.478.36-.478 1.16-1.648.17-.346-.36-1.475-.18-.203-.43-2.258.04-.071 1.05 1.027.79.254.589-.325 1.9-2.208-.34 2.177 1.23-.427 1.34.702-.19.386.63.082 1.2.834.01.498.83-.427.92-.641.12-.386-1-.834.52.193 1.26.6.81-1.353.62.031.43-.621-.02-.295.58.377.67-1.892-.76.112-1.34-.316-.75-1.129-.04-2.655-2.43-.396.57.203 1.72-1.719-.01.02-.7-.66-.06-.306.41-2.38.27-.499.38-2.187-.28.285-1.71-2.33-1.38v-.36l-1.993-.17.092-2.35-.316-.22.367-.26-.336-1.36.254-.3-.356-.19-.112.49-.702.17-.335-.3.06-1.389-.945-1.73-.59-.2-1.485.81-.651-.02-1.424-.98-.224-.79.346-.65-1.017-1.07-.479.55-1.312-.01-.478 1.21-2.41-.43-1.333-.92-.356-.92-.64-.18-1.282-2.32-1.78.11-.173-.7-.662-.2.285-2.2-.956.2-.905-.4-.082-1.27.265-.22-.377-.12.387-.63-.376-.34-1.15.22-.376-.38-.387-.99.173-1.09.814-1.13.62-.33 1.404.07-.01.28 2.136-.26 1.15-.89.223-.66-.997-.11-1.027-.99-1.17-.14-2.858-3.18-.478-2.08-1.495-1.12.742-.2-.427-.1-.244-.62.519-.55-.58-.2-.132-1.709-.845-.44-.325.28-.194-.93-.427-.3.112-.67-.447-.49.173-.49.488-.02.101-1.08-.945-.74-.672.1-.55-1.2-.772-.23-.997-1.26-.56-.06.102-.69-.549-.57-.02-1.34-.987-1.15-.02-.46-.143.24-1.017-.26-.193.29-.407-.27.224-.45-.407-.52-.122-1.25.63-.43-.203-.2.519-1.22.681-.07-.224-.57.316-.5-.387-.28.895-.47-.02-.52-.336-.17.367-.22-.397-.01-.458-.65.254-.61-1.22-.2-.082-.679.936-.68-.163-.62-.345-.4-.712.23-.662-.6-.07-.81.152.41 1.475.28.396-.36-1.363-2.5.784-.87.132-.77-1.078-.6-.865-1.69 1.953-.94.478-.67 1.088.2 2.462-.92.356.4.04 1.1 1.201-.36 2.92.77-1.15 1.3.102.91 1.414-.39 2.553.96.864-1.11 1.852-1.06 1.576-2.47 5.117-2.77 1.627-1.76-.783-2.86 1.638-2.539-.163-.62 1.678-1.22 3.103.03 3.234-.46 2.035-.67 1.465.55 1.535-.21.896.71h.529l2.298-1.61.407.08.254.79 2.574-.77.448.78h1.149l1.13-1.08.772-.11 2.604-1.79 1.506-.01 1.892-.96 1.139.49zM413.488 257.78l2.92-.71 3.214-1.4 4.394-.46 5.29-1.73 2.176.15 2.36.92 4.801 1.09 1.607-.06 1.323-.63.295-.84-.265-.96-.803.13.396-.49-.844-.4.377-.16-.041-.52.213.28.275-.47-.427-1.68-.539.03-.336-1.799 1.129-.32-.254-1.68.844-.1-.061-1.32.295-.11-.213-1.33-2.198.38-.457-2.98.783-.56-.132-1.08-.957.04-.345-1.36-1.496.68-.518-2.55 1.708-.24-.081-.63.855-.32.213.56 1.231-.27-.366-2.54-1.262.09-.305-1.57-.386-.02-.244-1.78 1.22-.259-.681-3.93.763-.02.071.28 1.19-.16-.01 2.02 2.38-.3.183.34 1.577-.4.793-1.18 1.455-.53 2.41.07 1.689-.67.926.44 1.536-.5 1.546 1.09 6.255 1.44.133.91 6.266-3.16 1.322 2.18 2.197-.17.285 1.6 5.198-1.32.6.42.03.39-.468.29.051.64.275-.22.244.23-.397.599 2.645-.599.448 1.749-1.089.41.244.63.753.19.275 1.39-.712.37.05.26.733-.25.386 1.77.834-.54.377.55-.366.32.661 1.03-.427 1.91h-1.547l.123.91 2.726-.02 1.363-.57-.265 1.04.366.32 2.381.01.396.77 1.77-.25-.03-.98 1.668.13.102.43 2.797.28 2.126-.26.081-.42 2.085-.52.662-.15.132.48-.275 1.16-.417.09.031 1.56 2.848-.39.529 3.28.498.03.407 2.44 2.675-.28-.59.99-.671-.18-.082.34-1.169.18.223 1.389 1.333-.21.031.49-.723.15.092.7.631.29 2.217-1.05 2.238 3.8 1.79-1.41.702.99.498-.35.743 1.17.702-.74 1.851 3.05.254-.24 2.452 2.14.813-1.48.499.22-.112.49 1.811.08-.092 1.58-.285.02-1.322 3.17.285.88-1.363.68-.875-1.93-.997.25.458 1.75-1.434.9.071.38-1.475.65-.356-.67-2.726.17-.163-.45-.61.1 1.261 5.809-2.696-.24.143.27-1.19.07 1.19 1.37.376-.13.316.51.376-.42.112.59.427-.27.142.4.275-.11 1.2 1.74.641-.16.387 1.91-.916.55 3.296 1.53.681-.54.835.93-1.18 1.64 1.729 1.32-1.424.82-.214-.23-2.451 1.95 1.444 2.25-1.037.67-1.536.26-2.859 2.409-1.444 2.62-1.485 3.88-1.882 2.49-.702-.03 1.017-.69.173-.67 1.394-1.26.285-.72-.702-1.52-1.312-1.28-1.923-1.07-3.54.12-1.414.76-5.421 1.79-1.323.89-2.431 2.9-3.682 6.23-.946 1.04-.712-.16-1.18.73-.305-.03.071-.45.55.2.569-.39.387-.96.651-.05 1.444-1.09 1.465-2.46.03-1.51-.895-1.28-1.597-.93-1.18.06-1.495.59-2.929-.51-3.266.39-1.841.75-5.025 2.88-4.607 4.9-4.944 2.35-3.194 4.149-6.205 10.17-1.973 1.53-4.527 1.63v-1.2l1.485-1.11-.081-.64 1.048-.54 2.665-.49 2.614-1.23.336-1.63 2.329-3.2.285-1.39.681-.14 1.302-2.04-.264-.19-.549.28-.458 1.13-.631-.98-1.261-.12-.397-2.169.631-.91-.031-.82-.335-.51-1.719-.63-.682-1.22-.437-.15.346-.95-.977.56.753 2.17.834.72.061 2.079-.722 1.24-2.086 1.31-.874 1.99-.987.09-.62-8.939-1.15.15-2.634-1.6-1.831.27-.316-1.5.468-.13-.183-1.33-4.608.72-.274-1.55-.906.03-.315-1.77 1.465-.41-.326-2.81-2.146.27-.102-.66-1.627.18-.275-1.82 1.129-.16-.061-.65 2.716-.37-.01-.44.478-.03.01-1.06.509-.02-.275-2.119 2.075-.31-.417-2.67-1.76.15-.59-4.06-1.678.26-.132-1.04-2.116.26-.122-.98-.661-.03-.315-1.51-.774.1-.488-4.17-1.129.1-.997-6.999 1.333-.24-.122-.81-.275-.79-.976.15-.346-1.66 1.108-.33.153-.82-3.479.67.133 1.13-.692.14.102.52-.926.19-.58-.47-.987.13-.783.79-.458-.37-.681-4.02-.458.02-.63-3.64-.59-.64-2.92-1.47z"/><path d="M210.987 42.05l.864-.12 2.146 2.66.356 1.91 1.292-.66 2.665-2.28 1.638.13.264.42 1.048.14.01.55 3.499.1-.935.44.112.24.651-.25-.397.4 1.414 5.73.63.27 1.221-1.29-.01 1.66.539 1.1.61-.63.112-1.23.275-.12-.183-1.23-.509-.66 2.136-3.96 1.017-.21 1.872-1.32 2.065-.06.244.91.804-.07 1.027-.78 2.706-3.4 2.034-.09.315.31-.437 1.04.702.3-.234.58.997.8.193 1.31 1.444.34.245 1.99-.448 1.84.712 1.12v.73l1.251.39.692 2.79-.112 1.31 1.332-.34.011.5 1.21-.18.153 2.98-1.485 2.71-.885.13.02-.33-2.146.68.935 4.56.804 2.829.295.08.183-1.63.57-.14 2.217 1.49 1.577 2.27 1.699 1.52-1.577 2.39.092 1.67.345.36-1.2-.46-.956.06-.051 1.94.834.28.844.84.733 1.79 1.078.86.295.62-.763 1.66.966.64.468-.21.255.81-1.424-.27-.448.24.102.76.742.45-.427.31.142.56-1.332.17 1.231.29.844-.51 1.394.22.04 1.099.855 1.14-.723 1.65-1.546 1.1-.03.72-.814.48-.58-.28-.295.19-.193.24.315.45-.6.61.112.3-.559-.1.122.3-.448.18 1.638 1.43.386 1-.122 1.27-.457.719-.936-.08.254.58-.244.65 1.546.76.142 1.51-.915.67-.956-.59-.234.94 1.607.19.132.54-1.027 1.27-.926-.06.539.83.692-.16.346-.53 2.37-.44.58.47.529.87.04 1.15.692.17.265.46.651-.32-.753 1.55.346.59 1.586.44.743-.18-.58 1.47.407.89-.793.3 1.251 2.33-.488.21-.397 1.18-1.038 1.15 1.638 1.529-1.139 1.37-.061.45.641.05-.946.66 1.617 1.86-.081 1.49-.59.46.722 1.42-.255.41.977 1.09-.173.32.753 1.33-.305.67-1.872 1.01.814.44-1.496 1.37.458.22-.468.5-.376-.22-.712.92-.59-.21-.193.59-1.709.43-.255.84-1.129-.81-.539.45.173.49-.498.74-.427-.6-.702.6-.448-.11.844 2.249-.803 1.79.305.81 1.617.02-.132 2.22.844.35-.356.71-2.543-.57-.162.48-.651-.37-.916 1.94-.854-.43-.499.76-.447-.67-1.699-.05-.153 2h-.742l-.356-.67-.977.75-2.237-.17-.997.41-.539-.5-3.001.14-.916-.32-.03-.82.712-1.12-1.007-.52-.326-1.02-.864-.8 1.607-1.85.315-1.18-1.322-.94.01-1.089-.803-.35.915-1.11-.275-.89-.457.05.193-1.11-2.014-1.38.071-.73-.793-.39-.509.11-.468 1.35-1.963.51-.112.44-1.048-.04-.701 2.4-.356.08-.56-.65-.987.24-1.912-.49-.722.2-.071 1.42-.997.4-1.475-2.3-1.485.57-.509-.77h-1.607l-.559 1.71-.977.52-1.515-.71-2.37-.4-.631-.62-.061.81-.682.59-.284-.24-2.33.11-1.424.88-1.251.089-3.967-.439-.905.479-1.038.07-.57.62-1.22.27-.499-.21.011.45-.641.13-.214.81-.681.11-1.964-2.01-1.017-.2.875-1.679-2.055-.35-.346.61-1.251-2.21.133-.62-.478-1.31.478-.85-.997.13-.895-1.05-.367.4-.457-.1-.021-1.51.336-.06.061-.61.549-.19-.854-2.27-.031-1.02.377-.05.142-.41.458.03 1.18.76 1.058-1.7.905.59.448-.57-.438-2.13-1.79-.5.468-.88-.143-.54.59-.07-.559-.43.224-1.14 1.668-.73-.549-.659-.041-1.17-.936.29.204.78-.641.09-.55-2.36-.488.1.122-2.29-1.871.61-.489 1.01-.335.02-.987-.7-.336-.88-1.271-.23-.01-.75-.692-.06-.02.27-1.109-.98.549.06-.142-.32.58-.21-1.211-1.22-.6-.46-1.719-.03.081-1.97-2.36-1.4.285-1.46 1.15-1.93.254-1.81-1.099.08-.274-1.19-1.729-.99-.499-1.59 1.221-.25-.509-1.03.458-.97-1.353-.99.712-.79.061-.9-.356-.33.305-.44 1.14-.26 1.078-2.49-.397-1.289.234-.92-.956-.4.02-1.19-.315-.31.285-1.56-.316-.62.621-.96-.193-.66.274-.64-.274-.22.335-.6-1.322-1.15.122-.73.59-.23-.02-.49-1.353-2.95.925-.43-.091-1.19 1.841-.14.173-.48 1.617-.05-.376-.82.203-1.11 1.465-.98-.041-2.409.499-.25-.153-.5 1.445-2.52 1.973-1.88-.081-.54-.814-.43.508-.51-.773-2.45 1.852-.38.905-1.34-.02-1.41-.926-.43.458-4.08.966-.03-.153 1.07 1.435.93.417.75 1.068-.01-.489-1.49h-.651l-.05-2.64 1.525-.23.906-1.079.681.22-.213-1.01 2.543 2.13.783.09 1.363-3.05 1.2-.17.499-.41-.804-1.85.478-1.7-.661-.49 1.088-.75 2.106.76.356.64-.112 1.46.814-.16.427-.73.712.01-1.241 1.93 3.326-.41 1.109-.73 1.048.09.966-1.53.885-.14.539-.88.142-1.19 2.92-1.95.346.33-.356 2.99z"/></g><defs><clipPath id="clip0_411_394"><path fill="#fff" d="M0 0h623v408H0z"/></clipPath></defs></svg>